<svg width="2185" height="1092" viewBox="0 0 2185 1092" fill="none" xmlns="http://www.w3.org/2000/svg">
  <g style="transform: translateX(23%);">
    <circle cx="567.22" cy="546" r="300" fill="#A792D0" fill-opacity="0.1" />
    <circle cx="567.22" cy="546" r="299.5" stroke="#6031AC" stroke-opacity="0.4" />
    <circle cx="567.22" cy="546" r="217" fill="#A792D0" fill-opacity="0.1" />
    <circle cx="567.22" cy="546" r="216.5" stroke="#6031AC" stroke-opacity="0.4" />
    <circle cx="567.22" cy="546" r="154" fill="#A792D0" fill-opacity="0.1" />
    <circle cx="567.22" cy="546" r="153.5" stroke="#6031AC" stroke-opacity="0.4" />
    <circle cx="567.22" cy="546" r="368" fill="#A792D0" fill-opacity="0.1" />
    <circle cx="567.22" cy="546" r="367.5" stroke="#6031AC" stroke-opacity="0.4" />
    <circle cx="567.22" cy="546" r="421" fill="#A792D0" fill-opacity="0.1" />
    <circle cx="567.22" cy="546" r="420.5" stroke="#6031AC" stroke-opacity="0.4" />
    <circle cx="567.22" cy="546" r="478" fill="#A792D0" fill-opacity="0.1" />
    <circle cx="567.22" cy="546" r="477.5" stroke="#6031AC" stroke-opacity="0.4" />
    <circle cx="567.22" cy="546" r="546" fill="#A792D0" fill-opacity="0.1" />
    <circle cx="567.22" cy="546" r="545.5" stroke="#6031AC" stroke-opacity="0.4" />
    <path
      d="M239.46 633.5H240.294L239.901 632.764L185.046 530.172L275.953 428.373L276.697 427.54H275.58H196.2H195.969L195.82 427.715L147.171 484.679L118.948 427.817L118.81 427.54H118.5H39.12H38.2838L38.6795 428.276L93.1153 529.611L2.62428 632.67L1.89559 633.5H3H81.12H81.3489L81.4985 633.327L131.413 575.509L160.895 633.227L161.034 633.5H161.34H239.46ZM623.413 575.062L623.453 574.168L622.671 574.603C617.713 577.357 612.059 578.74 605.693 578.74C601.558 578.74 598.55 577.808 596.578 576.033C594.616 574.267 593.594 571.588 593.594 567.9C593.594 566.532 593.73 565.02 594.007 563.362L604.507 500.782L604.507 500.782C605.912 492.35 606.613 482.942 606.613 472.56C606.613 462.104 603.786 452.49 598.134 443.729L598.13 443.722C589.58 430.898 571.002 424.6 542.693 424.6C514.883 424.6 492.552 436.418 475.737 460.006C473.031 448.385 466.589 439.604 456.425 433.697C445.959 427.616 431.579 424.6 413.333 424.6C388.04 424.6 367.029 434.537 350.332 454.38L354.605 431.07L354.713 430.48H354.113H287.753H287.334L287.261 430.893L251.561 632.913L251.457 633.5H252.053H323.453H323.873L323.946 633.087L347.44 500.094C356.01 491.021 366.206 486.5 378.053 486.5C385.55 486.5 391.079 488.167 394.731 491.413C398.372 494.65 400.233 499.533 400.233 506.16C400.233 511.171 399.816 516.183 398.981 521.195C398.981 521.196 398.98 521.197 398.98 521.198L379.241 632.913L379.137 633.5H379.733H451.133H451.554L451.626 633.086L474.286 503.421C482.583 492.136 493.888 486.5 508.253 486.5C515.608 486.5 521.03 488.166 524.613 491.41C528.186 494.646 530.013 499.53 530.013 506.16C530.013 511.172 529.596 516.184 528.76 521.198L519.941 572.854C518.817 579.318 518.253 585.367 518.253 591C518.253 607.062 523.048 619.192 532.712 627.293C542.359 635.38 556.776 639.38 575.873 639.38C592.792 639.38 607.885 633.878 621.133 622.885L621.303 622.743L621.313 622.522L623.413 575.062ZM739.221 575.062L739.261 574.168L738.479 574.603C733.533 577.351 727.323 578.74 719.822 578.74C716.259 578.74 713.679 577.849 711.985 576.156C710.292 574.463 709.402 571.883 709.402 568.32C709.402 566.669 709.539 565.017 709.815 563.364C709.815 563.364 709.815 563.363 709.815 563.362L753.914 314.307L754.018 313.72H753.422H682.022H681.603L681.529 314.133L635.75 572.853L635.749 572.858C634.623 579.612 634.062 587.48 634.062 596.46C634.062 605.514 636.468 613.866 641.279 621.506L641.281 621.51C648.989 633.499 665.748 639.38 691.262 639.38C708.181 639.38 723.411 633.878 736.937 622.888L737.112 622.746L737.121 622.522L739.221 575.062ZM828.395 537.747L836.722 490.7H952.223H952.642L952.715 490.287L963.215 431.067L963.319 430.48H962.723H847.397L859.476 360.925L859.631 360.029L858.791 360.378L781.931 392.298L781.678 392.403L781.63 392.673L753.07 555.213L753.07 555.218C751.946 561.961 751.383 568.288 751.383 574.2C751.383 592.224 756.737 606.64 767.487 617.391C781.904 632.09 805.447 639.38 837.983 639.38C871.528 639.38 898.221 630.852 918.005 613.743C937.787 596.636 950.602 571.001 956.496 536.905L956.597 536.32H956.003H886.283H885.864L885.791 536.732C883.561 549.274 879.387 559.267 873.295 566.744L873.288 566.753C867.495 574.201 860.217 577.9 851.423 577.9C843.106 577.9 836.959 575.718 832.885 571.44C828.806 567.157 826.723 560.689 826.723 551.94C826.723 547.783 827.277 543.058 828.392 537.763L828.394 537.755L828.395 537.747ZM1175.23 430.822L1175.11 430.48H1174.75H1103.35H1102.77L1102.86 431.058L1104.11 439.024C1104.12 439.027 1104.12 439.03 1104.12 439.033C1106.35 456.372 1107.47 472.168 1107.47 486.42C1107.47 516.916 1103.83 539.716 1096.6 554.874C1092.99 562.447 1088.49 568.094 1083.11 571.847C1077.75 575.598 1071.48 577.48 1064.29 577.48C1056.1 577.48 1050.06 575.502 1046.05 571.635C1042.05 567.771 1040.01 561.938 1040.01 554.04C1040.01 550.72 1040.43 546.974 1041.26 542.798L1041.26 542.787L1061 431.067L1061.11 430.48H1060.51H989.111H988.692L988.618 430.892L968.88 542.186C968.879 542.188 968.879 542.189 968.879 542.19C966.635 553.971 965.511 564.502 965.511 573.78C965.511 593.445 970.004 608.153 979.087 617.802C992.673 632.238 1017.07 639.38 1052.11 639.38C1074.59 639.38 1094.41 634.463 1111.58 624.613L1111.58 624.612C1129.01 614.493 1142.51 601.415 1152.08 585.376C1161.9 569.097 1169.2 551.974 1173.97 534.008C1178.75 516.044 1181.13 497.381 1181.13 478.02C1181.13 458.393 1179.17 442.653 1175.23 430.822Z"
      fill="url(#lightGradient)" stroke="white" />
    <path
      d="M154.345 665.437V662H178.345V665.437H168.282V694H164.407V665.437H154.345ZM181.69 703C181.065 703 180.508 702.948 180.019 702.844C179.529 702.75 179.19 702.656 179.003 702.562L179.94 699.312C180.836 699.541 181.628 699.625 182.315 699.562C183.003 699.5 183.612 699.192 184.144 698.64C184.685 698.099 185.18 697.219 185.628 696L186.315 694.125L177.44 670H181.44L188.065 689.125H188.315L194.94 670H198.94L188.753 697.5C188.295 698.739 187.727 699.765 187.05 700.578C186.373 701.401 185.586 702.01 184.69 702.406C183.805 702.802 182.805 703 181.69 703ZM202.048 703V670H205.61V673.812H206.048C206.318 673.396 206.693 672.864 207.173 672.219C207.662 671.562 208.36 670.979 209.266 670.469C210.183 669.948 211.423 669.687 212.985 669.687C215.006 669.687 216.787 670.192 218.329 671.203C219.871 672.213 221.074 673.646 221.938 675.5C222.803 677.354 223.235 679.541 223.235 682.062C223.235 684.604 222.803 686.807 221.938 688.672C221.074 690.526 219.876 691.963 218.345 692.984C216.813 693.995 215.048 694.5 213.048 694.5C211.506 694.5 210.272 694.245 209.345 693.734C208.417 693.213 207.704 692.625 207.204 691.969C206.704 691.302 206.318 690.75 206.048 690.312H205.735V703H202.048ZM205.673 682C205.673 683.812 205.938 685.411 206.47 686.797C207.001 688.172 207.777 689.25 208.798 690.031C209.818 690.802 211.068 691.187 212.548 691.187C214.089 691.187 215.376 690.781 216.407 689.969C217.449 689.146 218.23 688.041 218.751 686.656C219.282 685.26 219.548 683.708 219.548 682C219.548 680.312 219.287 678.791 218.766 677.437C218.256 676.073 217.48 674.995 216.438 674.203C215.407 673.401 214.11 673 212.548 673C211.048 673 209.787 673.38 208.766 674.14C207.746 674.89 206.975 675.942 206.454 677.297C205.933 678.64 205.673 680.208 205.673 682ZM237.163 694.5C234.85 694.5 232.855 693.989 231.178 692.969C229.512 691.937 228.225 690.5 227.319 688.656C226.423 686.802 225.975 684.646 225.975 682.187C225.975 679.729 226.423 677.562 227.319 675.687C228.225 673.802 229.486 672.333 231.1 671.281C232.725 670.219 234.621 669.687 236.788 669.687C238.038 669.687 239.272 669.896 240.491 670.312C241.71 670.729 242.819 671.406 243.819 672.344C244.819 673.271 245.616 674.5 246.21 676.031C246.803 677.562 247.1 679.448 247.1 681.687V683.25H228.6V680.062H243.35C243.35 678.708 243.079 677.5 242.538 676.437C242.006 675.375 241.246 674.536 240.256 673.922C239.277 673.307 238.121 673 236.788 673C235.319 673 234.048 673.364 232.975 674.094C231.913 674.812 231.095 675.75 230.522 676.906C229.949 678.062 229.663 679.302 229.663 680.625V682.75C229.663 684.562 229.975 686.099 230.6 687.359C231.236 688.609 232.116 689.562 233.241 690.219C234.366 690.864 235.673 691.187 237.163 691.187C238.131 691.187 239.006 691.052 239.788 690.781C240.579 690.5 241.262 690.083 241.835 689.531C242.407 688.969 242.85 688.271 243.163 687.437L246.725 688.437C246.35 689.646 245.72 690.708 244.835 691.625C243.949 692.531 242.855 693.239 241.553 693.75C240.251 694.25 238.788 694.5 237.163 694.5ZM268.95 670C268.762 668.416 268.002 667.187 266.668 666.312C265.335 665.437 263.7 665 261.762 665C260.345 665 259.106 665.229 258.043 665.687C256.991 666.146 256.168 666.776 255.575 667.578C254.991 668.38 254.7 669.291 254.7 670.312C254.7 671.166 254.903 671.901 255.309 672.515C255.726 673.12 256.257 673.625 256.903 674.031C257.548 674.427 258.226 674.755 258.934 675.015C259.642 675.265 260.293 675.469 260.887 675.625L264.137 676.5C264.97 676.719 265.897 677.021 266.918 677.406C267.95 677.791 268.934 678.317 269.871 678.984C270.819 679.64 271.601 680.484 272.215 681.515C272.83 682.547 273.137 683.812 273.137 685.312C273.137 687.041 272.684 688.604 271.778 690C270.882 691.396 269.569 692.505 267.84 693.328C266.121 694.151 264.033 694.562 261.575 694.562C259.283 694.562 257.298 694.192 255.621 693.453C253.955 692.713 252.642 691.682 251.684 690.359C250.736 689.036 250.2 687.5 250.075 685.75H254.075C254.179 686.958 254.585 687.958 255.293 688.75C256.012 689.531 256.918 690.114 258.012 690.5C259.116 690.875 260.304 691.062 261.575 691.062C263.054 691.062 264.382 690.823 265.559 690.344C266.736 689.854 267.668 689.177 268.356 688.312C269.043 687.437 269.387 686.416 269.387 685.25C269.387 684.187 269.09 683.323 268.496 682.656C267.903 681.989 267.121 681.448 266.153 681.031C265.184 680.614 264.137 680.25 263.012 679.937L259.075 678.812C256.575 678.094 254.595 677.067 253.137 675.734C251.679 674.401 250.95 672.656 250.95 670.5C250.95 668.708 251.434 667.146 252.403 665.812C253.382 664.469 254.694 663.427 256.34 662.687C257.996 661.937 259.845 661.562 261.887 661.562C263.95 661.562 265.783 661.932 267.387 662.672C268.991 663.401 270.262 664.401 271.2 665.672C272.147 666.942 272.647 668.385 272.7 670H268.95ZM286.998 694.5C284.748 694.5 282.811 693.969 281.186 692.906C279.561 691.844 278.311 690.38 277.436 688.515C276.561 686.651 276.123 684.521 276.123 682.125C276.123 679.687 276.571 677.536 277.467 675.672C278.373 673.797 279.634 672.333 281.248 671.281C282.873 670.219 284.769 669.687 286.936 669.687C288.623 669.687 290.144 670 291.498 670.625C292.852 671.25 293.962 672.125 294.826 673.25C295.691 674.375 296.227 675.687 296.436 677.187H292.748C292.467 676.094 291.842 675.125 290.873 674.281C289.915 673.427 288.623 673 286.998 673C285.561 673 284.3 673.375 283.217 674.125C282.144 674.864 281.305 675.911 280.701 677.265C280.107 678.609 279.811 680.187 279.811 682C279.811 683.854 280.102 685.469 280.686 686.844C281.279 688.219 282.113 689.286 283.186 690.047C284.269 690.807 285.54 691.187 286.998 691.187C287.956 691.187 288.826 691.021 289.607 690.687C290.389 690.354 291.05 689.875 291.592 689.25C292.134 688.625 292.519 687.875 292.748 687H296.436C296.227 688.416 295.712 689.692 294.889 690.828C294.076 691.953 292.998 692.849 291.654 693.515C290.321 694.172 288.769 694.5 286.998 694.5ZM300.066 694V670H303.629V673.625H303.879C304.316 672.437 305.108 671.474 306.254 670.734C307.4 669.995 308.691 669.625 310.129 669.625C310.4 669.625 310.738 669.63 311.144 669.64C311.551 669.651 311.858 669.666 312.066 669.687V673.437C311.941 673.406 311.655 673.359 311.207 673.297C310.769 673.224 310.306 673.187 309.816 673.187C308.65 673.187 307.608 673.432 306.691 673.922C305.785 674.401 305.066 675.067 304.535 675.922C304.014 676.765 303.754 677.729 303.754 678.812V694H300.066ZM314.677 694V670H318.365V694H314.677ZM316.552 666C315.834 666 315.214 665.755 314.693 665.265C314.183 664.776 313.927 664.187 313.927 663.5C313.927 662.812 314.183 662.224 314.693 661.734C315.214 661.245 315.834 661 316.552 661C317.271 661 317.886 661.245 318.396 661.734C318.917 662.224 319.177 662.812 319.177 663.5C319.177 664.187 318.917 664.776 318.396 665.265C317.886 665.755 317.271 666 316.552 666ZM323.359 703V670H326.921V673.812H327.359C327.63 673.396 328.005 672.864 328.484 672.219C328.973 671.562 329.671 670.979 330.577 670.469C331.494 669.948 332.734 669.687 334.296 669.687C336.317 669.687 338.098 670.192 339.64 671.203C341.182 672.213 342.385 673.646 343.249 675.5C344.114 677.354 344.546 679.541 344.546 682.062C344.546 684.604 344.114 686.807 343.249 688.672C342.385 690.526 341.187 691.963 339.656 692.984C338.124 693.995 336.359 694.5 334.359 694.5C332.817 694.5 331.583 694.245 330.656 693.734C329.729 693.213 329.015 692.625 328.515 691.969C328.015 691.302 327.63 690.75 327.359 690.312H327.046V703H323.359ZM326.984 682C326.984 683.812 327.249 685.411 327.781 686.797C328.312 688.172 329.088 689.25 330.109 690.031C331.13 690.802 332.38 691.187 333.859 691.187C335.4 691.187 336.687 690.781 337.718 689.969C338.76 689.146 339.541 688.041 340.062 686.656C340.593 685.26 340.859 683.708 340.859 682C340.859 680.312 340.598 678.791 340.077 677.437C339.567 676.073 338.791 674.995 337.749 674.203C336.718 673.401 335.421 673 333.859 673C332.359 673 331.098 673.38 330.077 674.14C329.057 674.89 328.286 675.942 327.765 677.297C327.244 678.64 326.984 680.208 326.984 682ZM358.849 670V673.125H346.411V670H358.849ZM350.036 664.25H353.724V687.125C353.724 688.166 353.875 688.948 354.177 689.469C354.489 689.979 354.885 690.323 355.364 690.5C355.854 690.666 356.37 690.75 356.911 690.75C357.317 690.75 357.651 690.729 357.911 690.687C358.172 690.635 358.38 690.594 358.536 690.562L359.286 693.875C359.036 693.969 358.687 694.062 358.239 694.156C357.791 694.26 357.224 694.312 356.536 694.312C355.495 694.312 354.474 694.088 353.474 693.64C352.484 693.192 351.661 692.51 351.005 691.594C350.359 690.677 350.036 689.521 350.036 688.125V664.25ZM383.688 670V673.125H371.251V670H383.688ZM374.876 664.25H378.563V687.125C378.563 688.166 378.714 688.948 379.016 689.469C379.329 689.979 379.725 690.323 380.204 690.5C380.693 690.666 381.209 690.75 381.751 690.75C382.157 690.75 382.49 690.729 382.751 690.687C383.011 690.635 383.219 690.594 383.376 690.562L384.126 693.875C383.876 693.969 383.527 694.062 383.079 694.156C382.631 694.26 382.063 694.312 381.376 694.312C380.334 694.312 379.313 694.088 378.313 693.64C377.324 693.192 376.501 692.51 375.844 691.594C375.199 690.677 374.876 689.521 374.876 688.125V664.25ZM396.967 694.5C394.8 694.5 392.899 693.984 391.264 692.953C389.639 691.922 388.368 690.479 387.452 688.625C386.545 686.771 386.092 684.604 386.092 682.125C386.092 679.625 386.545 677.442 387.452 675.578C388.368 673.713 389.639 672.265 391.264 671.234C392.899 670.203 394.8 669.687 396.967 669.687C399.134 669.687 401.03 670.203 402.655 671.234C404.29 672.265 405.561 673.713 406.467 675.578C407.384 677.442 407.842 679.625 407.842 682.125C407.842 684.604 407.384 686.771 406.467 688.625C405.561 690.479 404.29 691.922 402.655 692.953C401.03 693.984 399.134 694.5 396.967 694.5ZM396.967 691.187C398.613 691.187 399.967 690.765 401.03 689.922C402.092 689.078 402.879 687.969 403.389 686.594C403.899 685.219 404.155 683.729 404.155 682.125C404.155 680.521 403.899 679.026 403.389 677.64C402.879 676.255 402.092 675.135 401.03 674.281C399.967 673.427 398.613 673 396.967 673C395.321 673 393.967 673.427 392.905 674.281C391.842 675.135 391.056 676.255 390.545 677.64C390.035 679.026 389.78 680.521 389.78 682.125C389.78 683.729 390.035 685.219 390.545 686.594C391.056 687.969 391.842 689.078 392.905 689.922C393.967 690.765 395.321 691.187 396.967 691.187ZM421.461 694.5C419.294 694.5 417.393 693.984 415.758 692.953C414.133 691.922 412.862 690.479 411.945 688.625C411.039 686.771 410.586 684.604 410.586 682.125C410.586 679.625 411.039 677.442 411.945 675.578C412.862 673.713 414.133 672.265 415.758 671.234C417.393 670.203 419.294 669.687 421.461 669.687C423.628 669.687 425.524 670.203 427.149 671.234C428.784 672.265 430.055 673.713 430.961 675.578C431.878 677.442 432.336 679.625 432.336 682.125C432.336 684.604 431.878 686.771 430.961 688.625C430.055 690.479 428.784 691.922 427.149 692.953C425.524 693.984 423.628 694.5 421.461 694.5ZM421.461 691.187C423.107 691.187 424.461 690.765 425.524 689.922C426.586 689.078 427.373 687.969 427.883 686.594C428.393 685.219 428.649 683.729 428.649 682.125C428.649 680.521 428.393 679.026 427.883 677.64C427.373 676.255 426.586 675.135 425.524 674.281C424.461 673.427 423.107 673 421.461 673C419.815 673 418.461 673.427 417.399 674.281C416.336 675.135 415.55 676.255 415.039 677.64C414.529 679.026 414.274 680.521 414.274 682.125C414.274 683.729 414.529 685.219 415.039 686.594C415.55 687.969 416.336 689.078 417.399 689.922C418.461 690.765 419.815 691.187 421.461 691.187ZM439.892 662V694H436.205V662H439.892ZM461.886 675.375L458.574 676.312C458.366 675.76 458.058 675.224 457.652 674.703C457.256 674.172 456.715 673.734 456.027 673.39C455.34 673.047 454.459 672.875 453.386 672.875C451.918 672.875 450.694 673.213 449.715 673.89C448.746 674.557 448.261 675.406 448.261 676.437C448.261 677.354 448.595 678.078 449.261 678.609C449.928 679.14 450.97 679.583 452.386 679.937L455.949 680.812C458.095 681.333 459.694 682.13 460.746 683.203C461.798 684.265 462.324 685.635 462.324 687.312C462.324 688.687 461.928 689.916 461.136 691C460.355 692.083 459.261 692.937 457.855 693.562C456.449 694.187 454.813 694.5 452.949 694.5C450.501 694.5 448.475 693.969 446.871 692.906C445.267 691.844 444.251 690.291 443.824 688.25L447.324 687.375C447.657 688.666 448.287 689.635 449.215 690.281C450.152 690.927 451.376 691.25 452.886 691.25C454.605 691.25 455.97 690.885 456.98 690.156C458.001 689.416 458.511 688.531 458.511 687.5C458.511 686.666 458.22 685.969 457.636 685.406C457.053 684.833 456.157 684.406 454.949 684.125L450.949 683.187C448.751 682.666 447.136 681.859 446.105 680.765C445.084 679.661 444.574 678.281 444.574 676.625C444.574 675.271 444.954 674.073 445.715 673.031C446.485 671.989 447.532 671.172 448.855 670.578C450.188 669.984 451.699 669.687 453.386 669.687C455.761 669.687 457.626 670.208 458.98 671.25C460.345 672.291 461.313 673.666 461.886 675.375ZM487.417 670V673.125H474.48V670H487.417ZM478.355 694V666.687C478.355 665.312 478.678 664.166 479.323 663.25C479.969 662.333 480.808 661.646 481.839 661.187C482.87 660.729 483.959 660.5 485.105 660.5C486.011 660.5 486.75 660.573 487.323 660.719C487.896 660.864 488.323 661 488.605 661.125L487.542 664.312C487.355 664.25 487.094 664.172 486.761 664.078C486.438 663.984 486.011 663.937 485.48 663.937C484.261 663.937 483.381 664.245 482.839 664.859C482.308 665.474 482.042 666.375 482.042 667.562V694H478.355ZM499.587 694.5C497.42 694.5 495.519 693.984 493.884 692.953C492.259 691.922 490.988 690.479 490.071 688.625C489.165 686.771 488.712 684.604 488.712 682.125C488.712 679.625 489.165 677.442 490.071 675.578C490.988 673.713 492.259 672.265 493.884 671.234C495.519 670.203 497.42 669.687 499.587 669.687C501.754 669.687 503.649 670.203 505.274 671.234C506.91 672.265 508.181 673.713 509.087 675.578C510.004 677.442 510.462 679.625 510.462 682.125C510.462 684.604 510.004 686.771 509.087 688.625C508.181 690.479 506.91 691.922 505.274 692.953C503.649 693.984 501.754 694.5 499.587 694.5ZM499.587 691.187C501.233 691.187 502.587 690.765 503.649 689.922C504.712 689.078 505.498 687.969 506.009 686.594C506.519 685.219 506.774 683.729 506.774 682.125C506.774 680.521 506.519 679.026 506.009 677.64C505.498 676.255 504.712 675.135 503.649 674.281C502.587 673.427 501.233 673 499.587 673C497.941 673 496.587 673.427 495.524 674.281C494.462 675.135 493.675 676.255 493.165 677.64C492.655 679.026 492.399 680.521 492.399 682.125C492.399 683.729 492.655 685.219 493.165 686.594C493.675 687.969 494.462 689.078 495.524 689.922C496.587 690.765 497.941 691.187 499.587 691.187ZM514.331 694V670H517.893V673.625H518.143C518.581 672.437 519.372 671.474 520.518 670.734C521.664 669.995 522.956 669.625 524.393 669.625C524.664 669.625 525.003 669.63 525.409 669.64C525.815 669.651 526.122 669.666 526.331 669.687V673.437C526.206 673.406 525.919 673.359 525.471 673.297C525.034 673.224 524.57 673.187 524.081 673.187C522.914 673.187 521.872 673.432 520.956 673.922C520.049 674.401 519.331 675.067 518.799 675.922C518.279 676.765 518.018 677.729 518.018 678.812V694H514.331ZM544.994 694L537.682 670H541.557L546.744 688.375H546.994L552.119 670H556.057L561.119 688.312H561.369L566.557 670H570.432L563.119 694H559.494L554.244 675.562H553.869L548.619 694H544.994ZM582.48 694.5C580.314 694.5 578.413 693.984 576.777 692.953C575.152 691.922 573.881 690.479 572.965 688.625C572.059 686.771 571.605 684.604 571.605 682.125C571.605 679.625 572.059 677.442 572.965 675.578C573.881 673.713 575.152 672.265 576.777 671.234C578.413 670.203 580.314 669.687 582.48 669.687C584.647 669.687 586.543 670.203 588.168 671.234C589.803 672.265 591.074 673.713 591.98 675.578C592.897 677.442 593.355 679.625 593.355 682.125C593.355 684.604 592.897 686.771 591.98 688.625C591.074 690.479 589.803 691.922 588.168 692.953C586.543 693.984 584.647 694.5 582.48 694.5ZM582.48 691.187C584.126 691.187 585.48 690.765 586.543 689.922C587.605 689.078 588.392 687.969 588.902 686.594C589.413 685.219 589.668 683.729 589.668 682.125C589.668 680.521 589.413 679.026 588.902 677.64C588.392 676.255 587.605 675.135 586.543 674.281C585.48 673.427 584.126 673 582.48 673C580.835 673 579.48 673.427 578.418 674.281C577.355 675.135 576.569 676.255 576.059 677.64C575.548 679.026 575.293 680.521 575.293 682.125C575.293 683.729 575.548 685.219 576.059 686.594C576.569 687.969 577.355 689.078 578.418 689.922C579.48 690.765 580.835 691.187 582.48 691.187ZM597.224 694V670H600.787V673.625H601.037C601.474 672.437 602.266 671.474 603.412 670.734C604.558 669.995 605.849 669.625 607.287 669.625C607.558 669.625 607.896 669.63 608.302 669.64C608.709 669.651 609.016 669.666 609.224 669.687V673.437C609.099 673.406 608.813 673.359 608.365 673.297C607.927 673.224 607.464 673.187 606.974 673.187C605.808 673.187 604.766 673.432 603.849 673.922C602.943 674.401 602.224 675.067 601.693 675.922C601.172 676.765 600.912 677.729 600.912 678.812V694H597.224ZM615.273 685.25L615.21 680.687H615.96L626.46 670H631.023L619.835 681.312H619.523L615.273 685.25ZM611.835 694V662H615.523V694H611.835ZM627.085 694L617.71 682.125L620.335 679.562L631.773 694H627.085ZM634.009 694V670H637.697V694H634.009ZM635.884 666C635.165 666 634.545 665.755 634.025 665.265C633.514 664.776 633.259 664.187 633.259 663.5C633.259 662.812 633.514 662.224 634.025 661.734C634.545 661.245 635.165 661 635.884 661C636.603 661 637.217 661.245 637.728 661.734C638.249 662.224 638.509 662.812 638.509 663.5C638.509 664.187 638.249 664.776 637.728 665.265C637.217 665.755 636.603 666 635.884 666ZM646.378 679.562V694H642.69V670H646.253V673.75H646.565C647.128 672.531 647.982 671.552 649.128 670.812C650.274 670.062 651.753 669.687 653.565 669.687C655.19 669.687 656.612 670.021 657.831 670.687C659.05 671.344 659.998 672.344 660.675 673.687C661.352 675.021 661.69 676.708 661.69 678.75V694H658.003V679C658.003 677.114 657.513 675.646 656.534 674.594C655.555 673.531 654.211 673 652.503 673C651.326 673 650.274 673.255 649.347 673.765C648.43 674.276 647.706 675.021 647.175 676C646.644 676.979 646.378 678.166 646.378 679.562ZM676.356 703.5C674.575 703.5 673.044 703.271 671.762 702.812C670.481 702.364 669.414 701.771 668.559 701.031C667.716 700.302 667.044 699.521 666.544 698.687L669.481 696.625C669.815 697.062 670.236 697.562 670.747 698.125C671.257 698.698 671.955 699.192 672.841 699.609C673.736 700.036 674.908 700.25 676.356 700.25C678.294 700.25 679.893 699.781 681.153 698.844C682.414 697.906 683.044 696.437 683.044 694.437V689.562H682.731C682.46 690 682.075 690.541 681.575 691.187C681.085 691.823 680.377 692.39 679.45 692.89C678.533 693.38 677.294 693.625 675.731 693.625C673.794 693.625 672.054 693.166 670.512 692.25C668.981 691.333 667.768 690 666.872 688.25C665.986 686.5 665.544 684.375 665.544 681.875C665.544 679.416 665.976 677.276 666.841 675.453C667.705 673.62 668.908 672.203 670.45 671.203C671.992 670.192 673.773 669.687 675.794 669.687C677.356 669.687 678.596 669.948 679.512 670.469C680.44 670.979 681.148 671.562 681.637 672.219C682.137 672.864 682.523 673.396 682.794 673.812H683.169V670H686.731V694.687C686.731 696.75 686.262 698.427 685.325 699.719C684.398 701.021 683.148 701.974 681.575 702.578C680.012 703.192 678.273 703.5 676.356 703.5ZM676.231 690.312C677.71 690.312 678.96 689.974 679.981 689.297C681.002 688.62 681.778 687.646 682.309 686.375C682.841 685.104 683.106 683.583 683.106 681.812C683.106 680.083 682.846 678.557 682.325 677.234C681.804 675.911 681.033 674.875 680.012 674.125C678.992 673.375 677.731 673 676.231 673C674.669 673 673.367 673.396 672.325 674.187C671.294 674.979 670.518 676.041 669.997 677.375C669.486 678.708 669.231 680.187 669.231 681.812C669.231 683.479 669.492 684.953 670.012 686.234C670.544 687.505 671.325 688.505 672.356 689.234C673.398 689.953 674.69 690.312 676.231 690.312ZM707.774 694L700.461 670H704.336L709.524 688.375H709.774L714.899 670H718.836L723.899 688.312H724.149L729.336 670H733.211L725.899 694H722.274L717.024 675.562H716.649L711.399 694H707.774ZM736.326 694V670H740.014V694H736.326ZM738.201 666C737.482 666 736.863 665.755 736.342 665.265C735.831 664.776 735.576 664.187 735.576 663.5C735.576 662.812 735.831 662.224 736.342 661.734C736.863 661.245 737.482 661 738.201 661C738.92 661 739.535 661.245 740.045 661.734C740.566 662.224 740.826 662.812 740.826 663.5C740.826 664.187 740.566 664.776 740.045 665.265C739.535 665.755 738.92 666 738.201 666ZM755.445 670V673.125H743.008V670H755.445ZM746.633 664.25H750.32V687.125C750.32 688.166 750.471 688.948 750.773 689.469C751.086 689.979 751.482 690.323 751.961 690.5C752.45 690.666 752.966 690.75 753.508 690.75C753.914 690.75 754.247 690.729 754.508 690.687C754.768 690.635 754.976 690.594 755.133 690.562L755.883 693.875C755.633 693.969 755.284 694.062 754.836 694.156C754.388 694.26 753.82 694.312 753.133 694.312C752.091 694.312 751.07 694.088 750.07 693.64C749.081 693.192 748.258 692.51 747.601 691.594C746.956 690.677 746.633 689.521 746.633 688.125V664.25ZM763.435 679.562V694H759.748V662H763.435V673.75H763.748C764.31 672.51 765.154 671.526 766.279 670.797C767.414 670.057 768.925 669.687 770.81 669.687C772.446 669.687 773.878 670.015 775.107 670.672C776.336 671.317 777.289 672.312 777.966 673.656C778.654 674.989 778.998 676.687 778.998 678.75V694H775.31V679C775.31 677.094 774.815 675.62 773.826 674.578C772.847 673.526 771.487 673 769.748 673C768.539 673 767.456 673.255 766.498 673.765C765.55 674.276 764.8 675.021 764.248 676C763.706 676.979 763.435 678.166 763.435 679.562ZM795.099 694V662H814.411V665.437H798.974V676.25H813.411V679.687H798.974V690.562H814.661V694H795.099ZM819.636 694V662H830.448C832.959 662 835.011 662.453 836.604 663.359C838.209 664.255 839.396 665.469 840.167 667C840.938 668.531 841.323 670.239 841.323 672.125C841.323 674.01 840.938 675.724 840.167 677.265C839.406 678.807 838.229 680.036 836.636 680.953C835.042 681.859 833 682.312 830.511 682.312H822.761V678.875H830.386C832.104 678.875 833.485 678.578 834.526 677.984C835.568 677.39 836.323 676.588 836.792 675.578C837.271 674.557 837.511 673.406 837.511 672.125C837.511 670.844 837.271 669.698 836.792 668.687C836.323 667.677 835.563 666.885 834.511 666.312C833.459 665.729 832.063 665.437 830.323 665.437H823.511V694H819.636ZM867.68 672C867.337 670.948 866.883 670.005 866.321 669.172C865.769 668.328 865.107 667.609 864.337 667.015C863.576 666.422 862.712 665.969 861.743 665.656C860.774 665.344 859.712 665.187 858.555 665.187C856.659 665.187 854.936 665.677 853.383 666.656C851.831 667.635 850.597 669.078 849.68 670.984C848.764 672.89 848.305 675.229 848.305 678C848.305 680.771 848.769 683.109 849.696 685.015C850.623 686.922 851.878 688.364 853.462 689.344C855.045 690.323 856.826 690.812 858.805 690.812C860.639 690.812 862.253 690.422 863.649 689.64C865.055 688.849 866.149 687.734 866.93 686.297C867.722 684.849 868.118 683.146 868.118 681.187L869.305 681.437H859.68V678H871.868V681.437C871.868 684.073 871.305 686.364 870.18 688.312C869.066 690.26 867.524 691.771 865.555 692.844C863.597 693.906 861.347 694.437 858.805 694.437C855.972 694.437 853.482 693.771 851.337 692.437C849.201 691.104 847.534 689.208 846.337 686.75C845.149 684.291 844.555 681.375 844.555 678C844.555 675.469 844.894 673.192 845.571 671.172C846.258 669.14 847.227 667.411 848.477 665.984C849.727 664.557 851.206 663.463 852.915 662.703C854.623 661.942 856.503 661.562 858.555 661.562C860.243 661.562 861.816 661.817 863.274 662.328C864.743 662.828 866.05 663.541 867.196 664.469C868.352 665.385 869.316 666.484 870.087 667.765C870.857 669.036 871.389 670.448 871.68 672H867.68ZM895.922 694.5C893.922 694.5 892.156 693.995 890.625 692.984C889.094 691.963 887.896 690.526 887.031 688.672C886.167 686.807 885.734 684.604 885.734 682.062C885.734 679.541 886.167 677.354 887.031 675.5C887.896 673.646 889.099 672.213 890.641 671.203C892.182 670.192 893.964 669.687 895.984 669.687C897.547 669.687 898.781 669.948 899.688 670.469C900.604 670.979 901.302 671.562 901.781 672.219C902.271 672.864 902.651 673.396 902.922 673.812H903.234V662H906.922V694H903.359V690.312H902.922C902.651 690.75 902.266 691.302 901.766 691.969C901.266 692.625 900.552 693.213 899.625 693.734C898.698 694.245 897.464 694.5 895.922 694.5ZM896.422 691.187C897.901 691.187 899.151 690.802 900.172 690.031C901.193 689.25 901.969 688.172 902.5 686.797C903.031 685.411 903.297 683.812 903.297 682C903.297 680.208 903.037 678.64 902.516 677.297C901.995 675.942 901.224 674.89 900.203 674.14C899.182 673.38 897.922 673 896.422 673C894.859 673 893.557 673.401 892.516 674.203C891.484 674.995 890.708 676.073 890.188 677.437C889.677 678.791 889.422 680.312 889.422 682C889.422 683.708 889.682 685.26 890.203 686.656C890.734 688.041 891.516 689.146 892.547 689.969C893.589 690.781 894.88 691.187 896.422 691.187ZM919.49 694.562C917.969 694.562 916.589 694.276 915.349 693.703C914.11 693.12 913.126 692.281 912.396 691.187C911.667 690.083 911.303 688.75 911.303 687.187C911.303 685.812 911.573 684.698 912.115 683.844C912.657 682.979 913.381 682.302 914.287 681.812C915.193 681.323 916.193 680.958 917.287 680.719C918.391 680.469 919.501 680.271 920.615 680.125C922.073 679.937 923.256 679.797 924.162 679.703C925.079 679.599 925.745 679.427 926.162 679.187C926.589 678.948 926.803 678.531 926.803 677.937V677.812C926.803 676.271 926.381 675.073 925.537 674.219C924.704 673.364 923.438 672.937 921.74 672.937C919.98 672.937 918.599 673.323 917.599 674.094C916.599 674.864 915.896 675.687 915.49 676.562L911.99 675.312C912.615 673.854 913.448 672.719 914.49 671.906C915.542 671.083 916.688 670.51 917.928 670.187C919.178 669.854 920.407 669.687 921.615 669.687C922.386 669.687 923.271 669.781 924.271 669.969C925.282 670.146 926.256 670.515 927.193 671.078C928.141 671.64 928.928 672.489 929.553 673.625C930.178 674.76 930.49 676.281 930.49 678.187V694H926.803V690.75H926.615C926.365 691.271 925.948 691.828 925.365 692.422C924.782 693.015 924.006 693.521 923.037 693.937C922.068 694.354 920.886 694.562 919.49 694.562ZM920.053 691.25C921.511 691.25 922.74 690.963 923.74 690.39C924.751 689.817 925.511 689.078 926.021 688.172C926.542 687.265 926.803 686.312 926.803 685.312V681.937C926.646 682.125 926.303 682.297 925.771 682.453C925.251 682.599 924.646 682.729 923.959 682.844C923.282 682.948 922.62 683.041 921.974 683.125C921.339 683.198 920.823 683.26 920.428 683.312C919.469 683.437 918.573 683.64 917.74 683.922C916.917 684.192 916.251 684.604 915.74 685.156C915.24 685.698 914.99 686.437 914.99 687.375C914.99 688.656 915.464 689.625 916.412 690.281C917.37 690.927 918.584 691.25 920.053 691.25ZM945.898 670V673.125H933.461V670H945.898ZM937.086 664.25H940.773V687.125C940.773 688.166 940.924 688.948 941.226 689.469C941.539 689.979 941.935 690.323 942.414 690.5C942.903 690.666 943.419 690.75 943.961 690.75C944.367 690.75 944.7 690.729 944.961 690.687C945.221 690.635 945.429 690.594 945.586 690.562L946.336 693.875C946.086 693.969 945.737 694.062 945.289 694.156C944.841 694.26 944.273 694.312 943.586 694.312C942.544 694.312 941.523 694.088 940.523 693.64C939.533 693.192 938.711 692.51 938.054 691.594C937.408 690.677 937.086 689.521 937.086 688.125V664.25ZM956.747 694.562C955.227 694.562 953.846 694.276 952.607 693.703C951.367 693.12 950.383 692.281 949.654 691.187C948.925 690.083 948.56 688.75 948.56 687.187C948.56 685.812 948.831 684.698 949.372 683.844C949.914 682.979 950.638 682.302 951.544 681.812C952.451 681.323 953.451 680.958 954.544 680.719C955.649 680.469 956.758 680.271 957.872 680.125C959.331 679.937 960.513 679.797 961.419 679.703C962.336 679.599 963.003 679.427 963.419 679.187C963.846 678.948 964.06 678.531 964.06 677.937V677.812C964.06 676.271 963.638 675.073 962.794 674.219C961.961 673.364 960.695 672.937 958.997 672.937C957.237 672.937 955.857 673.323 954.857 674.094C953.857 674.864 953.154 675.687 952.747 676.562L949.247 675.312C949.872 673.854 950.706 672.719 951.747 671.906C952.8 671.083 953.945 670.51 955.185 670.187C956.435 669.854 957.664 669.687 958.872 669.687C959.643 669.687 960.529 669.781 961.529 669.969C962.539 670.146 963.513 670.515 964.451 671.078C965.399 671.64 966.185 672.489 966.81 673.625C967.435 674.76 967.747 676.281 967.747 678.187V694H964.06V690.75H963.872C963.622 691.271 963.206 691.828 962.622 692.422C962.039 693.015 961.263 693.521 960.294 693.937C959.326 694.354 958.143 694.562 956.747 694.562ZM957.31 691.25C958.768 691.25 959.997 690.963 960.997 690.39C962.008 689.817 962.768 689.078 963.279 688.172C963.8 687.265 964.06 686.312 964.06 685.312V681.937C963.904 682.125 963.56 682.297 963.029 682.453C962.508 682.599 961.904 682.729 961.216 682.844C960.539 682.948 959.878 683.041 959.232 683.125C958.596 683.198 958.081 683.26 957.685 683.312C956.727 683.437 955.831 683.64 954.997 683.922C954.175 684.192 953.508 684.604 952.997 685.156C952.497 685.698 952.247 686.437 952.247 687.375C952.247 688.656 952.721 689.625 953.669 690.281C954.628 690.927 955.841 691.25 957.31 691.25ZM975.405 694.25C974.635 694.25 973.973 693.974 973.421 693.422C972.869 692.87 972.593 692.208 972.593 691.437C972.593 690.666 972.869 690.005 973.421 689.453C973.973 688.901 974.635 688.625 975.405 688.625C976.176 688.625 976.838 688.901 977.39 689.453C977.942 690.005 978.218 690.666 978.218 691.437C978.218 691.948 978.088 692.416 977.827 692.844C977.577 693.271 977.239 693.614 976.812 693.875C976.395 694.125 975.926 694.25 975.405 694.25Z"
      fill="#0C1117" />
  </g>
  <defs>
    <linearGradient id="lightGradient" x1="360" y1="834" x2="344.388" y2="366.774" gradientUnits="userSpaceOnUse">
      <stop stop-color="#410E20" />
      <stop offset="1" stop-color="#5429B1" />
    </linearGradient>
  </defs>
</svg>
