<svg width="2185" height="1092" viewBox="0 0 2185 1092" fill="none" xmlns="http://www.w3.org/2000/svg">
  <style>
    svg {
      color-scheme: dark light;
    }

    #one,
    #two {
      transform: translateX(23%);
    }

    #one {
      display: block;
    }

    #two {
      display: none;
    }

    @media (prefers-color-scheme:light) {
      #one {
        display: none;
      }

      #two {
        display: block;
      }
    }
  </style>
  <g id="one">
    <circle cx="569.22" cy="546" r="300" fill="#0B0615" fill-opacity="0.1" />
    <circle cx="569.22" cy="546" r="299.5" stroke="#B2F771" stroke-opacity="0.1" />
    <circle cx="569.22" cy="546" r="217" fill="#0B0615" fill-opacity="0.1" />
    <circle cx="569.22" cy="546" r="216.5" stroke="#B2F771" stroke-opacity="0.1" />
    <circle cx="569.22" cy="546" r="154" fill="#0B0615" fill-opacity="0.1" />
    <circle cx="569.22" cy="546" r="153.5" stroke="#B2F771" stroke-opacity="0.1" />
    <circle cx="569.22" cy="546" r="368" fill="#0B0615" fill-opacity="0.1" />
    <circle cx="569.22" cy="546" r="367.5" stroke="#B2F771" stroke-opacity="0.1" />
    <circle cx="569.22" cy="546" r="421" fill="#0B0615" fill-opacity="0.1" />
    <circle cx="569.22" cy="546" r="420.5" stroke="#B2F771" stroke-opacity="0.1" />
    <circle cx="569.22" cy="546" r="478" fill="#0B0615" fill-opacity="0.1" />
    <circle cx="569.22" cy="546" r="477.5" stroke="#B2F771" stroke-opacity="0.1" />
    <circle cx="569.22" cy="546" r="546" fill="#0B0615" fill-opacity="0.1" />
    <circle cx="569.22" cy="546" r="545.5" stroke="#B2F771" stroke-opacity="0.1" />
    <path
      d="M241.46 634H243.129L242.342 632.528L187.651 530.245L278.326 428.706L279.814 427.04H277.58H198.2H197.739L197.44 427.39L149.283 483.779L121.396 427.595L121.12 427.04H120.5H41.12H39.4477L40.2391 428.513L94.5106 529.542L4.24856 632.34L2.79117 634H5H83.12H83.5778L83.877 633.653L133.306 576.398L162.449 633.455L162.728 634H163.34H241.46ZM625.912 575.084L625.992 573.297L624.428 574.166C619.553 576.874 613.984 578.24 607.693 578.24C603.623 578.24 600.757 577.322 598.912 575.662C597.088 574.019 596.094 571.497 596.094 567.9C596.094 566.565 596.227 565.081 596.5 563.444L607 500.865L607 500.864C608.411 492.4 609.113 482.964 609.113 472.56C609.113 462.008 606.258 452.3 600.554 443.458L600.55 443.451L600.546 443.445C591.846 430.396 573.03 424.1 544.693 424.1C517.061 424.1 494.795 435.708 477.965 458.834C475.089 447.605 468.652 439.062 458.676 433.265C448.104 427.122 433.626 424.1 415.333 424.1C390.493 424.1 369.749 433.635 353.158 452.647L357.097 431.16L357.313 429.98H356.113H289.753H288.915L288.769 430.806L253.069 632.826L252.861 634H254.053H325.453H326.292L326.438 633.174L349.906 500.329C358.366 491.422 368.399 487 380.053 487C387.486 487 392.874 488.654 396.399 491.787C399.901 494.9 401.733 499.627 401.733 506.16C401.733 511.142 401.318 516.126 400.488 521.111C400.488 521.112 400.487 521.114 400.487 521.115L380.749 632.826L380.541 634H381.733H453.133H453.974L454.119 633.172L476.758 503.623C484.952 492.533 496.083 487 510.253 487C517.542 487 522.823 488.652 526.277 491.781C529.713 494.893 531.513 499.621 531.513 506.16C531.513 511.144 531.098 516.129 530.267 521.115L521.448 572.769C520.32 579.256 519.753 585.334 519.753 591C519.753 607.165 524.583 619.455 534.391 627.676C544.165 635.869 558.718 639.88 577.873 639.88C594.911 639.88 610.116 634.335 623.452 623.269L623.793 622.987L623.812 622.544L625.912 575.084ZM741.721 575.084L741.8 573.297L740.236 574.166C735.384 576.861 729.263 578.24 721.822 578.24C718.336 578.24 715.905 577.369 714.339 575.803C712.773 574.236 711.902 571.806 711.902 568.32C711.902 566.697 712.037 565.074 712.307 563.449C712.308 563.448 712.308 563.446 712.308 563.444L756.407 314.394L756.615 313.22H755.422H684.022H683.183L683.037 314.046L637.257 572.766L637.256 572.775C636.124 579.564 635.562 587.461 635.562 596.46C635.562 605.608 637.995 614.053 642.856 621.773L642.861 621.781C650.715 633.999 667.715 639.88 693.262 639.88C710.299 639.88 725.64 634.336 739.253 623.276L739.601 622.993L739.621 622.544L741.721 575.084ZM830.888 537.834L839.142 491.2H954.223H955.061L955.208 490.374L965.708 431.154L965.916 429.98H964.723H849.992L861.968 361.011L862.279 359.219L860.599 359.916L783.739 391.836L783.233 392.047L783.138 392.587L754.578 555.127L754.577 555.135C753.449 561.901 752.883 568.257 752.883 574.2C752.883 592.329 758.272 606.881 769.132 617.743C783.686 632.58 807.391 639.88 839.983 639.88C873.613 639.88 900.433 631.329 920.332 614.121C940.227 596.917 953.082 571.163 958.988 536.99L959.191 535.82H958.003H888.283H887.445L887.298 536.645C885.079 549.128 880.932 559.035 874.908 566.428L874.901 566.437L874.894 566.446C869.188 573.782 862.051 577.4 853.423 577.4C845.19 577.4 839.196 575.241 835.247 571.095C831.29 566.94 829.223 560.618 829.223 551.94C829.223 547.826 829.772 543.137 830.882 537.866L830.885 537.85L830.888 537.834ZM1177.7 430.664L1177.47 429.98H1176.75H1105.35H1104.18L1104.36 431.136L1105.62 439.088C1105.62 439.092 1105.62 439.097 1105.62 439.101C1107.86 456.423 1108.97 472.195 1108.97 486.42C1108.97 516.892 1105.33 539.602 1098.15 554.659C1094.56 562.174 1090.11 567.745 1084.83 571.438C1079.55 575.124 1073.39 576.98 1066.29 576.98C1058.18 576.98 1052.28 575.02 1048.4 571.276C1044.53 567.538 1042.51 561.857 1042.51 554.04C1042.51 550.761 1042.92 547.048 1043.75 542.896L1043.75 542.885L1043.76 542.874L1063.5 431.154L1063.7 429.98H1062.51H991.111H990.272L990.126 430.805L970.388 542.093C970.388 542.094 970.388 542.095 970.388 542.096C968.14 553.899 967.011 564.463 967.011 573.78C967.011 593.51 971.518 608.365 980.723 618.145C994.455 632.736 1019.04 639.88 1054.11 639.88C1076.66 639.88 1096.58 634.946 1113.83 625.047L1113.83 625.045C1131.33 614.887 1144.89 601.752 1154.51 585.637C1164.35 569.317 1171.67 552.15 1176.46 534.137C1181.24 516.129 1183.63 497.423 1183.63 478.02C1183.63 458.367 1181.67 442.567 1177.7 430.664Z"
      fill="url(#darkGradient)" stroke="black" stroke-width="2" />
    <path
      d="M156.345 665.437V662H180.345V665.437H170.282V694H166.407V665.437H156.345ZM183.69 703C183.065 703 182.508 702.948 182.019 702.844C181.529 702.75 181.19 702.656 181.003 702.562L181.94 699.312C182.836 699.542 183.628 699.625 184.315 699.562C185.003 699.5 185.612 699.193 186.144 698.641C186.685 698.099 187.18 697.219 187.628 696L188.315 694.125L179.44 670H183.44L190.065 689.125H190.315L196.94 670H200.94L190.753 697.5C190.295 698.739 189.727 699.766 189.05 700.578C188.373 701.401 187.586 702.01 186.69 702.406C185.805 702.802 184.805 703 183.69 703ZM204.048 703V670H207.61V673.812H208.048C208.318 673.396 208.693 672.864 209.173 672.219C209.662 671.562 210.36 670.979 211.266 670.469C212.183 669.948 213.423 669.687 214.985 669.687C217.006 669.687 218.787 670.193 220.329 671.203C221.871 672.213 223.074 673.646 223.938 675.5C224.803 677.354 225.235 679.542 225.235 682.062C225.235 684.604 224.803 686.807 223.938 688.672C223.074 690.526 221.876 691.963 220.345 692.984C218.813 693.995 217.048 694.5 215.048 694.5C213.506 694.5 212.272 694.245 211.345 693.734C210.417 693.213 209.704 692.625 209.204 691.969C208.704 691.302 208.318 690.75 208.048 690.312H207.735V703H204.048ZM207.673 682C207.673 683.812 207.938 685.411 208.47 686.797C209.001 688.172 209.777 689.25 210.798 690.031C211.818 690.802 213.068 691.187 214.548 691.187C216.089 691.187 217.376 690.781 218.407 689.969C219.449 689.146 220.23 688.042 220.751 686.656C221.282 685.26 221.548 683.708 221.548 682C221.548 680.312 221.287 678.792 220.766 677.437C220.256 676.073 219.48 674.995 218.438 674.203C217.407 673.401 216.11 673 214.548 673C213.048 673 211.787 673.38 210.766 674.141C209.746 674.891 208.975 675.943 208.454 677.297C207.933 678.641 207.673 680.208 207.673 682ZM239.163 694.5C236.85 694.5 234.855 693.989 233.178 692.969C231.512 691.937 230.225 690.5 229.319 688.656C228.423 686.802 227.975 684.646 227.975 682.187C227.975 679.729 228.423 677.562 229.319 675.687C230.225 673.802 231.486 672.333 233.1 671.281C234.725 670.219 236.621 669.687 238.788 669.687C240.038 669.687 241.272 669.896 242.491 670.312C243.71 670.729 244.819 671.406 245.819 672.344C246.819 673.271 247.616 674.5 248.21 676.031C248.803 677.562 249.1 679.448 249.1 681.687V683.25H230.6V680.062H245.35C245.35 678.708 245.079 677.5 244.538 676.437C244.006 675.375 243.246 674.536 242.256 673.922C241.277 673.307 240.121 673 238.788 673C237.319 673 236.048 673.364 234.975 674.094C233.913 674.812 233.095 675.75 232.522 676.906C231.949 678.062 231.663 679.302 231.663 680.625V682.75C231.663 684.562 231.975 686.099 232.6 687.359C233.236 688.609 234.116 689.562 235.241 690.219C236.366 690.864 237.673 691.187 239.163 691.187C240.131 691.187 241.006 691.052 241.788 690.781C242.579 690.5 243.262 690.083 243.835 689.531C244.407 688.969 244.85 688.271 245.163 687.437L248.725 688.437C248.35 689.646 247.72 690.708 246.835 691.625C245.949 692.531 244.855 693.239 243.553 693.75C242.251 694.25 240.788 694.5 239.163 694.5ZM270.95 670C270.762 668.417 270.002 667.187 268.668 666.312C267.335 665.437 265.7 665 263.762 665C262.345 665 261.106 665.229 260.043 665.687C258.991 666.146 258.168 666.776 257.575 667.578C256.991 668.38 256.7 669.292 256.7 670.312C256.7 671.167 256.903 671.901 257.309 672.516C257.726 673.12 258.257 673.625 258.903 674.031C259.548 674.427 260.226 674.755 260.934 675.016C261.642 675.266 262.293 675.469 262.887 675.625L266.137 676.5C266.97 676.719 267.897 677.021 268.918 677.406C269.95 677.792 270.934 678.318 271.871 678.984C272.819 679.641 273.601 680.484 274.215 681.516C274.83 682.547 275.137 683.812 275.137 685.312C275.137 687.042 274.684 688.604 273.778 690C272.882 691.396 271.569 692.505 269.84 693.328C268.121 694.151 266.033 694.562 263.575 694.562C261.283 694.562 259.298 694.193 257.621 693.453C255.955 692.713 254.642 691.682 253.684 690.359C252.736 689.036 252.2 687.5 252.075 685.75H256.075C256.179 686.958 256.585 687.958 257.293 688.75C258.012 689.531 258.918 690.114 260.012 690.5C261.116 690.875 262.304 691.062 263.575 691.062C265.054 691.062 266.382 690.823 267.559 690.344C268.736 689.854 269.668 689.177 270.356 688.312C271.043 687.437 271.387 686.417 271.387 685.25C271.387 684.187 271.09 683.323 270.496 682.656C269.903 681.989 269.121 681.448 268.153 681.031C267.184 680.614 266.137 680.25 265.012 679.937L261.075 678.812C258.575 678.094 256.595 677.068 255.137 675.734C253.679 674.401 252.95 672.656 252.95 670.5C252.95 668.708 253.434 667.146 254.403 665.812C255.382 664.469 256.694 663.427 258.34 662.687C259.996 661.937 261.845 661.562 263.887 661.562C265.95 661.562 267.783 661.932 269.387 662.672C270.991 663.401 272.262 664.401 273.2 665.672C274.147 666.943 274.647 668.385 274.7 670H270.95ZM288.998 694.5C286.748 694.5 284.811 693.969 283.186 692.906C281.561 691.844 280.311 690.38 279.436 688.516C278.561 686.651 278.123 684.521 278.123 682.125C278.123 679.687 278.571 677.536 279.467 675.672C280.373 673.797 281.634 672.333 283.248 671.281C284.873 670.219 286.769 669.687 288.936 669.687C290.623 669.687 292.144 670 293.498 670.625C294.852 671.25 295.962 672.125 296.826 673.25C297.691 674.375 298.227 675.687 298.436 677.187H294.748C294.467 676.094 293.842 675.125 292.873 674.281C291.915 673.427 290.623 673 288.998 673C287.561 673 286.3 673.375 285.217 674.125C284.144 674.864 283.305 675.911 282.701 677.266C282.107 678.609 281.811 680.187 281.811 682C281.811 683.854 282.102 685.469 282.686 686.844C283.279 688.219 284.113 689.286 285.186 690.047C286.269 690.807 287.54 691.187 288.998 691.187C289.956 691.187 290.826 691.021 291.607 690.687C292.389 690.354 293.05 689.875 293.592 689.25C294.134 688.625 294.519 687.875 294.748 687H298.436C298.227 688.417 297.712 689.693 296.889 690.828C296.076 691.953 294.998 692.849 293.654 693.516C292.321 694.172 290.769 694.5 288.998 694.5ZM302.066 694V670H305.629V673.625H305.879C306.316 672.437 307.108 671.474 308.254 670.734C309.4 669.995 310.691 669.625 312.129 669.625C312.4 669.625 312.738 669.63 313.144 669.641C313.551 669.651 313.858 669.667 314.066 669.687V673.437C313.941 673.406 313.655 673.359 313.207 673.297C312.769 673.224 312.306 673.187 311.816 673.187C310.65 673.187 309.608 673.432 308.691 673.922C307.785 674.401 307.066 675.068 306.535 675.922C306.014 676.766 305.754 677.729 305.754 678.812V694H302.066ZM316.677 694V670H320.365V694H316.677ZM318.552 666C317.834 666 317.214 665.755 316.693 665.266C316.183 664.776 315.927 664.187 315.927 663.5C315.927 662.812 316.183 662.224 316.693 661.734C317.214 661.245 317.834 661 318.552 661C319.271 661 319.886 661.245 320.396 661.734C320.917 662.224 321.177 662.812 321.177 663.5C321.177 664.187 320.917 664.776 320.396 665.266C319.886 665.755 319.271 666 318.552 666ZM325.359 703V670H328.921V673.812H329.359C329.63 673.396 330.005 672.864 330.484 672.219C330.973 671.562 331.671 670.979 332.577 670.469C333.494 669.948 334.734 669.687 336.296 669.687C338.317 669.687 340.098 670.193 341.64 671.203C343.182 672.213 344.385 673.646 345.249 675.5C346.114 677.354 346.546 679.542 346.546 682.062C346.546 684.604 346.114 686.807 345.249 688.672C344.385 690.526 343.187 691.963 341.656 692.984C340.124 693.995 338.359 694.5 336.359 694.5C334.817 694.5 333.583 694.245 332.656 693.734C331.729 693.213 331.015 692.625 330.515 691.969C330.015 691.302 329.63 690.75 329.359 690.312H329.046V703H325.359ZM328.984 682C328.984 683.812 329.249 685.411 329.781 686.797C330.312 688.172 331.088 689.25 332.109 690.031C333.13 690.802 334.38 691.187 335.859 691.187C337.4 691.187 338.687 690.781 339.718 689.969C340.76 689.146 341.541 688.042 342.062 686.656C342.593 685.26 342.859 683.708 342.859 682C342.859 680.312 342.598 678.792 342.077 677.437C341.567 676.073 340.791 674.995 339.749 674.203C338.718 673.401 337.421 673 335.859 673C334.359 673 333.098 673.38 332.077 674.141C331.057 674.891 330.286 675.943 329.765 677.297C329.244 678.641 328.984 680.208 328.984 682ZM360.849 670V673.125H348.411V670H360.849ZM352.036 664.25H355.724V687.125C355.724 688.167 355.875 688.948 356.177 689.469C356.489 689.979 356.885 690.323 357.364 690.5C357.854 690.667 358.37 690.75 358.911 690.75C359.317 690.75 359.651 690.729 359.911 690.687C360.172 690.635 360.38 690.594 360.536 690.562L361.286 693.875C361.036 693.969 360.687 694.062 360.239 694.156C359.791 694.26 359.224 694.312 358.536 694.312C357.495 694.312 356.474 694.088 355.474 693.641C354.484 693.193 353.661 692.51 353.005 691.594C352.359 690.677 352.036 689.521 352.036 688.125V664.25ZM385.688 670V673.125H373.251V670H385.688ZM376.876 664.25H380.563V687.125C380.563 688.167 380.714 688.948 381.016 689.469C381.329 689.979 381.725 690.323 382.204 690.5C382.693 690.667 383.209 690.75 383.751 690.75C384.157 690.75 384.49 690.729 384.751 690.687C385.011 690.635 385.219 690.594 385.376 690.562L386.126 693.875C385.876 693.969 385.527 694.062 385.079 694.156C384.631 694.26 384.063 694.312 383.376 694.312C382.334 694.312 381.313 694.088 380.313 693.641C379.324 693.193 378.501 692.51 377.844 691.594C377.199 690.677 376.876 689.521 376.876 688.125V664.25ZM398.967 694.5C396.8 694.5 394.899 693.984 393.264 692.953C391.639 691.922 390.368 690.479 389.452 688.625C388.545 686.771 388.092 684.604 388.092 682.125C388.092 679.625 388.545 677.443 389.452 675.578C390.368 673.713 391.639 672.266 393.264 671.234C394.899 670.203 396.8 669.687 398.967 669.687C401.134 669.687 403.03 670.203 404.655 671.234C406.29 672.266 407.561 673.713 408.467 675.578C409.384 677.443 409.842 679.625 409.842 682.125C409.842 684.604 409.384 686.771 408.467 688.625C407.561 690.479 406.29 691.922 404.655 692.953C403.03 693.984 401.134 694.5 398.967 694.5ZM398.967 691.187C400.613 691.187 401.967 690.766 403.03 689.922C404.092 689.078 404.879 687.969 405.389 686.594C405.899 685.219 406.155 683.729 406.155 682.125C406.155 680.521 405.899 679.026 405.389 677.641C404.879 676.255 404.092 675.135 403.03 674.281C401.967 673.427 400.613 673 398.967 673C397.321 673 395.967 673.427 394.905 674.281C393.842 675.135 393.056 676.255 392.545 677.641C392.035 679.026 391.78 680.521 391.78 682.125C391.78 683.729 392.035 685.219 392.545 686.594C393.056 687.969 393.842 689.078 394.905 689.922C395.967 690.766 397.321 691.187 398.967 691.187ZM423.461 694.5C421.294 694.5 419.393 693.984 417.758 692.953C416.133 691.922 414.862 690.479 413.945 688.625C413.039 686.771 412.586 684.604 412.586 682.125C412.586 679.625 413.039 677.443 413.945 675.578C414.862 673.713 416.133 672.266 417.758 671.234C419.393 670.203 421.294 669.687 423.461 669.687C425.628 669.687 427.524 670.203 429.149 671.234C430.784 672.266 432.055 673.713 432.961 675.578C433.878 677.443 434.336 679.625 434.336 682.125C434.336 684.604 433.878 686.771 432.961 688.625C432.055 690.479 430.784 691.922 429.149 692.953C427.524 693.984 425.628 694.5 423.461 694.5ZM423.461 691.187C425.107 691.187 426.461 690.766 427.524 689.922C428.586 689.078 429.373 687.969 429.883 686.594C430.393 685.219 430.649 683.729 430.649 682.125C430.649 680.521 430.393 679.026 429.883 677.641C429.373 676.255 428.586 675.135 427.524 674.281C426.461 673.427 425.107 673 423.461 673C421.815 673 420.461 673.427 419.399 674.281C418.336 675.135 417.55 676.255 417.039 677.641C416.529 679.026 416.274 680.521 416.274 682.125C416.274 683.729 416.529 685.219 417.039 686.594C417.55 687.969 418.336 689.078 419.399 689.922C420.461 690.766 421.815 691.187 423.461 691.187ZM441.892 662V694H438.205V662H441.892ZM463.886 675.375L460.574 676.312C460.366 675.76 460.058 675.224 459.652 674.703C459.256 674.172 458.715 673.734 458.027 673.391C457.34 673.047 456.459 672.875 455.386 672.875C453.918 672.875 452.694 673.213 451.715 673.891C450.746 674.557 450.261 675.406 450.261 676.437C450.261 677.354 450.595 678.078 451.261 678.609C451.928 679.141 452.97 679.583 454.386 679.937L457.949 680.812C460.095 681.333 461.694 682.13 462.746 683.203C463.798 684.266 464.324 685.635 464.324 687.312C464.324 688.687 463.928 689.917 463.136 691C462.355 692.083 461.261 692.937 459.855 693.562C458.449 694.187 456.813 694.5 454.949 694.5C452.501 694.5 450.475 693.969 448.871 692.906C447.267 691.844 446.251 690.292 445.824 688.25L449.324 687.375C449.657 688.667 450.287 689.635 451.215 690.281C452.152 690.927 453.376 691.25 454.886 691.25C456.605 691.25 457.97 690.885 458.98 690.156C460.001 689.417 460.511 688.531 460.511 687.5C460.511 686.667 460.22 685.969 459.636 685.406C459.053 684.833 458.157 684.406 456.949 684.125L452.949 683.187C450.751 682.667 449.136 681.859 448.105 680.766C447.084 679.661 446.574 678.281 446.574 676.625C446.574 675.271 446.954 674.073 447.715 673.031C448.485 671.989 449.532 671.172 450.855 670.578C452.188 669.984 453.699 669.687 455.386 669.687C457.761 669.687 459.626 670.208 460.98 671.25C462.345 672.292 463.313 673.667 463.886 675.375ZM489.417 670V673.125H476.48V670H489.417ZM480.355 694V666.687C480.355 665.312 480.678 664.167 481.323 663.25C481.969 662.333 482.808 661.646 483.839 661.187C484.87 660.729 485.959 660.5 487.105 660.5C488.011 660.5 488.75 660.573 489.323 660.719C489.896 660.864 490.323 661 490.605 661.125L489.542 664.312C489.355 664.25 489.094 664.172 488.761 664.078C488.438 663.984 488.011 663.937 487.48 663.937C486.261 663.937 485.381 664.245 484.839 664.859C484.308 665.474 484.042 666.375 484.042 667.562V694H480.355ZM501.587 694.5C499.42 694.5 497.519 693.984 495.884 692.953C494.259 691.922 492.988 690.479 492.071 688.625C491.165 686.771 490.712 684.604 490.712 682.125C490.712 679.625 491.165 677.443 492.071 675.578C492.988 673.713 494.259 672.266 495.884 671.234C497.519 670.203 499.42 669.687 501.587 669.687C503.754 669.687 505.649 670.203 507.274 671.234C508.91 672.266 510.181 673.713 511.087 675.578C512.004 677.443 512.462 679.625 512.462 682.125C512.462 684.604 512.004 686.771 511.087 688.625C510.181 690.479 508.91 691.922 507.274 692.953C505.649 693.984 503.754 694.5 501.587 694.5ZM501.587 691.187C503.233 691.187 504.587 690.766 505.649 689.922C506.712 689.078 507.498 687.969 508.009 686.594C508.519 685.219 508.774 683.729 508.774 682.125C508.774 680.521 508.519 679.026 508.009 677.641C507.498 676.255 506.712 675.135 505.649 674.281C504.587 673.427 503.233 673 501.587 673C499.941 673 498.587 673.427 497.524 674.281C496.462 675.135 495.675 676.255 495.165 677.641C494.655 679.026 494.399 680.521 494.399 682.125C494.399 683.729 494.655 685.219 495.165 686.594C495.675 687.969 496.462 689.078 497.524 689.922C498.587 690.766 499.941 691.187 501.587 691.187ZM516.331 694V670H519.893V673.625H520.143C520.581 672.437 521.372 671.474 522.518 670.734C523.664 669.995 524.956 669.625 526.393 669.625C526.664 669.625 527.003 669.63 527.409 669.641C527.815 669.651 528.122 669.667 528.331 669.687V673.437C528.206 673.406 527.919 673.359 527.471 673.297C527.034 673.224 526.57 673.187 526.081 673.187C524.914 673.187 523.872 673.432 522.956 673.922C522.049 674.401 521.331 675.068 520.799 675.922C520.279 676.766 520.018 677.729 520.018 678.812V694H516.331ZM546.994 694L539.682 670H543.557L548.744 688.375H548.994L554.119 670H558.057L563.119 688.312H563.369L568.557 670H572.432L565.119 694H561.494L556.244 675.562H555.869L550.619 694H546.994ZM584.48 694.5C582.314 694.5 580.413 693.984 578.777 692.953C577.152 691.922 575.881 690.479 574.965 688.625C574.059 686.771 573.605 684.604 573.605 682.125C573.605 679.625 574.059 677.443 574.965 675.578C575.881 673.713 577.152 672.266 578.777 671.234C580.413 670.203 582.314 669.687 584.48 669.687C586.647 669.687 588.543 670.203 590.168 671.234C591.803 672.266 593.074 673.713 593.98 675.578C594.897 677.443 595.355 679.625 595.355 682.125C595.355 684.604 594.897 686.771 593.98 688.625C593.074 690.479 591.803 691.922 590.168 692.953C588.543 693.984 586.647 694.5 584.48 694.5ZM584.48 691.187C586.126 691.187 587.48 690.766 588.543 689.922C589.605 689.078 590.392 687.969 590.902 686.594C591.413 685.219 591.668 683.729 591.668 682.125C591.668 680.521 591.413 679.026 590.902 677.641C590.392 676.255 589.605 675.135 588.543 674.281C587.48 673.427 586.126 673 584.48 673C582.835 673 581.48 673.427 580.418 674.281C579.355 675.135 578.569 676.255 578.059 677.641C577.548 679.026 577.293 680.521 577.293 682.125C577.293 683.729 577.548 685.219 578.059 686.594C578.569 687.969 579.355 689.078 580.418 689.922C581.48 690.766 582.835 691.187 584.48 691.187ZM599.224 694V670H602.787V673.625H603.037C603.474 672.437 604.266 671.474 605.412 670.734C606.558 669.995 607.849 669.625 609.287 669.625C609.558 669.625 609.896 669.63 610.302 669.641C610.709 669.651 611.016 669.667 611.224 669.687V673.437C611.099 673.406 610.813 673.359 610.365 673.297C609.927 673.224 609.464 673.187 608.974 673.187C607.808 673.187 606.766 673.432 605.849 673.922C604.943 674.401 604.224 675.068 603.693 675.922C603.172 676.766 602.912 677.729 602.912 678.812V694H599.224ZM617.273 685.25L617.21 680.687H617.96L628.46 670H633.023L621.835 681.312H621.523L617.273 685.25ZM613.835 694V662H617.523V694H613.835ZM629.085 694L619.71 682.125L622.335 679.562L633.773 694H629.085ZM636.009 694V670H639.697V694H636.009ZM637.884 666C637.165 666 636.545 665.755 636.025 665.266C635.514 664.776 635.259 664.187 635.259 663.5C635.259 662.812 635.514 662.224 636.025 661.734C636.545 661.245 637.165 661 637.884 661C638.603 661 639.217 661.245 639.728 661.734C640.249 662.224 640.509 662.812 640.509 663.5C640.509 664.187 640.249 664.776 639.728 665.266C639.217 665.755 638.603 666 637.884 666ZM648.378 679.562V694H644.69V670H648.253V673.75H648.565C649.128 672.531 649.982 671.552 651.128 670.812C652.274 670.062 653.753 669.687 655.565 669.687C657.19 669.687 658.612 670.021 659.831 670.687C661.05 671.344 661.998 672.344 662.675 673.687C663.352 675.021 663.69 676.708 663.69 678.75V694H660.003V679C660.003 677.114 659.513 675.646 658.534 674.594C657.555 673.531 656.211 673 654.503 673C653.326 673 652.274 673.255 651.347 673.766C650.43 674.276 649.706 675.021 649.175 676C648.644 676.979 648.378 678.167 648.378 679.562ZM678.356 703.5C676.575 703.5 675.044 703.271 673.762 702.812C672.481 702.364 671.414 701.771 670.559 701.031C669.716 700.302 669.044 699.521 668.544 698.687L671.481 696.625C671.815 697.062 672.236 697.562 672.747 698.125C673.257 698.698 673.955 699.193 674.841 699.609C675.736 700.036 676.908 700.25 678.356 700.25C680.294 700.25 681.893 699.781 683.153 698.844C684.414 697.906 685.044 696.437 685.044 694.437V689.562H684.731C684.46 690 684.075 690.542 683.575 691.187C683.085 691.823 682.377 692.391 681.45 692.891C680.533 693.38 679.294 693.625 677.731 693.625C675.794 693.625 674.054 693.167 672.512 692.25C670.981 691.333 669.768 690 668.872 688.25C667.986 686.5 667.544 684.375 667.544 681.875C667.544 679.417 667.976 677.276 668.841 675.453C669.705 673.62 670.908 672.203 672.45 671.203C673.992 670.193 675.773 669.687 677.794 669.687C679.356 669.687 680.596 669.948 681.512 670.469C682.44 670.979 683.148 671.562 683.637 672.219C684.137 672.864 684.523 673.396 684.794 673.812H685.169V670H688.731V694.687C688.731 696.75 688.262 698.427 687.325 699.719C686.398 701.021 685.148 701.974 683.575 702.578C682.012 703.193 680.273 703.5 678.356 703.5ZM678.231 690.312C679.71 690.312 680.96 689.974 681.981 689.297C683.002 688.62 683.778 687.646 684.309 686.375C684.841 685.104 685.106 683.583 685.106 681.812C685.106 680.083 684.846 678.557 684.325 677.234C683.804 675.911 683.033 674.875 682.012 674.125C680.992 673.375 679.731 673 678.231 673C676.669 673 675.367 673.396 674.325 674.187C673.294 674.979 672.518 676.042 671.997 677.375C671.486 678.708 671.231 680.187 671.231 681.812C671.231 683.479 671.492 684.953 672.012 686.234C672.544 687.505 673.325 688.505 674.356 689.234C675.398 689.953 676.69 690.312 678.231 690.312ZM709.774 694L702.461 670H706.336L711.524 688.375H711.774L716.899 670H720.836L725.899 688.312H726.149L731.336 670H735.211L727.899 694H724.274L719.024 675.562H718.649L713.399 694H709.774ZM738.326 694V670H742.014V694H738.326ZM740.201 666C739.482 666 738.863 665.755 738.342 665.266C737.831 664.776 737.576 664.187 737.576 663.5C737.576 662.812 737.831 662.224 738.342 661.734C738.863 661.245 739.482 661 740.201 661C740.92 661 741.535 661.245 742.045 661.734C742.566 662.224 742.826 662.812 742.826 663.5C742.826 664.187 742.566 664.776 742.045 665.266C741.535 665.755 740.92 666 740.201 666ZM757.445 670V673.125H745.008V670H757.445ZM748.633 664.25H752.32V687.125C752.32 688.167 752.471 688.948 752.773 689.469C753.086 689.979 753.482 690.323 753.961 690.5C754.45 690.667 754.966 690.75 755.508 690.75C755.914 690.75 756.247 690.729 756.508 690.687C756.768 690.635 756.976 690.594 757.133 690.562L757.883 693.875C757.633 693.969 757.284 694.062 756.836 694.156C756.388 694.26 755.82 694.312 755.133 694.312C754.091 694.312 753.07 694.088 752.07 693.641C751.081 693.193 750.258 692.51 749.601 691.594C748.956 690.677 748.633 689.521 748.633 688.125V664.25ZM765.435 679.562V694H761.748V662H765.435V673.75H765.748C766.31 672.51 767.154 671.526 768.279 670.797C769.414 670.057 770.925 669.687 772.81 669.687C774.446 669.687 775.878 670.016 777.107 670.672C778.336 671.318 779.289 672.312 779.966 673.656C780.654 674.989 780.998 676.687 780.998 678.75V694H777.31V679C777.31 677.094 776.815 675.62 775.826 674.578C774.847 673.526 773.487 673 771.748 673C770.539 673 769.456 673.255 768.498 673.766C767.55 674.276 766.8 675.021 766.248 676C765.706 676.979 765.435 678.167 765.435 679.562ZM797.099 694V662H816.411V665.437H800.974V676.25H815.411V679.687H800.974V690.562H816.661V694H797.099ZM821.636 694V662H832.448C834.959 662 837.011 662.453 838.604 663.359C840.209 664.255 841.396 665.469 842.167 667C842.938 668.531 843.323 670.239 843.323 672.125C843.323 674.01 842.938 675.724 842.167 677.266C841.406 678.807 840.229 680.036 838.636 680.953C837.042 681.859 835 682.312 832.511 682.312H824.761V678.875H832.386C834.104 678.875 835.485 678.578 836.526 677.984C837.568 677.391 838.323 676.588 838.792 675.578C839.271 674.557 839.511 673.406 839.511 672.125C839.511 670.844 839.271 669.698 838.792 668.687C838.323 667.677 837.563 666.885 836.511 666.312C835.459 665.729 834.063 665.437 832.323 665.437H825.511V694H821.636ZM869.68 672C869.337 670.948 868.883 670.005 868.321 669.172C867.769 668.328 867.107 667.609 866.337 667.016C865.576 666.422 864.712 665.969 863.743 665.656C862.774 665.344 861.712 665.187 860.555 665.187C858.659 665.187 856.936 665.677 855.383 666.656C853.831 667.635 852.597 669.078 851.68 670.984C850.764 672.891 850.305 675.229 850.305 678C850.305 680.771 850.769 683.109 851.696 685.016C852.623 686.922 853.878 688.364 855.462 689.344C857.045 690.323 858.826 690.812 860.805 690.812C862.639 690.812 864.253 690.422 865.649 689.641C867.055 688.849 868.149 687.734 868.93 686.297C869.722 684.849 870.118 683.146 870.118 681.187L871.305 681.437H861.68V678H873.868V681.437C873.868 684.073 873.305 686.364 872.18 688.312C871.066 690.26 869.524 691.771 867.555 692.844C865.597 693.906 863.347 694.437 860.805 694.437C857.972 694.437 855.482 693.771 853.337 692.437C851.201 691.104 849.534 689.208 848.337 686.75C847.149 684.292 846.555 681.375 846.555 678C846.555 675.469 846.894 673.193 847.571 671.172C848.258 669.141 849.227 667.411 850.477 665.984C851.727 664.557 853.206 663.463 854.915 662.703C856.623 661.943 858.503 661.562 860.555 661.562C862.243 661.562 863.816 661.818 865.274 662.328C866.743 662.828 868.05 663.542 869.196 664.469C870.352 665.385 871.316 666.484 872.087 667.766C872.857 669.036 873.389 670.448 873.68 672H869.68ZM897.922 694.5C895.922 694.5 894.156 693.995 892.625 692.984C891.094 691.963 889.896 690.526 889.031 688.672C888.167 686.807 887.734 684.604 887.734 682.062C887.734 679.542 888.167 677.354 889.031 675.5C889.896 673.646 891.099 672.213 892.641 671.203C894.182 670.193 895.964 669.687 897.984 669.687C899.547 669.687 900.781 669.948 901.688 670.469C902.604 670.979 903.302 671.562 903.781 672.219C904.271 672.864 904.651 673.396 904.922 673.812H905.234V662H908.922V694H905.359V690.312H904.922C904.651 690.75 904.266 691.302 903.766 691.969C903.266 692.625 902.552 693.213 901.625 693.734C900.698 694.245 899.464 694.5 897.922 694.5ZM898.422 691.187C899.901 691.187 901.151 690.802 902.172 690.031C903.193 689.25 903.969 688.172 904.5 686.797C905.031 685.411 905.297 683.812 905.297 682C905.297 680.208 905.037 678.641 904.516 677.297C903.995 675.943 903.224 674.891 902.203 674.141C901.182 673.38 899.922 673 898.422 673C896.859 673 895.557 673.401 894.516 674.203C893.484 674.995 892.708 676.073 892.188 677.437C891.677 678.792 891.422 680.312 891.422 682C891.422 683.708 891.682 685.26 892.203 686.656C892.734 688.042 893.516 689.146 894.547 689.969C895.589 690.781 896.88 691.187 898.422 691.187ZM921.49 694.562C919.969 694.562 918.589 694.276 917.349 693.703C916.11 693.12 915.126 692.281 914.396 691.187C913.667 690.083 913.303 688.75 913.303 687.187C913.303 685.812 913.573 684.698 914.115 683.844C914.657 682.979 915.381 682.302 916.287 681.812C917.193 681.323 918.193 680.958 919.287 680.719C920.391 680.469 921.501 680.271 922.615 680.125C924.073 679.937 925.256 679.797 926.162 679.703C927.079 679.599 927.745 679.427 928.162 679.187C928.589 678.948 928.803 678.531 928.803 677.937V677.812C928.803 676.271 928.381 675.073 927.537 674.219C926.704 673.364 925.438 672.937 923.74 672.937C921.98 672.937 920.599 673.323 919.599 674.094C918.599 674.864 917.896 675.687 917.49 676.562L913.99 675.312C914.615 673.854 915.448 672.719 916.49 671.906C917.542 671.083 918.688 670.51 919.928 670.187C921.178 669.854 922.407 669.687 923.615 669.687C924.386 669.687 925.271 669.781 926.271 669.969C927.282 670.146 928.256 670.516 929.193 671.078C930.141 671.641 930.928 672.489 931.553 673.625C932.178 674.76 932.49 676.281 932.49 678.187V694H928.803V690.75H928.615C928.365 691.271 927.948 691.828 927.365 692.422C926.782 693.016 926.006 693.521 925.037 693.937C924.068 694.354 922.886 694.562 921.49 694.562ZM922.053 691.25C923.511 691.25 924.74 690.963 925.74 690.391C926.751 689.818 927.511 689.078 928.021 688.172C928.542 687.266 928.803 686.312 928.803 685.312V681.937C928.646 682.125 928.303 682.297 927.771 682.453C927.251 682.599 926.646 682.729 925.959 682.844C925.282 682.948 924.62 683.042 923.974 683.125C923.339 683.198 922.823 683.26 922.428 683.312C921.469 683.437 920.573 683.641 919.74 683.922C918.917 684.193 918.251 684.604 917.74 685.156C917.24 685.698 916.99 686.437 916.99 687.375C916.99 688.656 917.464 689.625 918.412 690.281C919.37 690.927 920.584 691.25 922.053 691.25ZM947.898 670V673.125H935.461V670H947.898ZM939.086 664.25H942.773V687.125C942.773 688.167 942.924 688.948 943.226 689.469C943.539 689.979 943.935 690.323 944.414 690.5C944.903 690.667 945.419 690.75 945.961 690.75C946.367 690.75 946.7 690.729 946.961 690.687C947.221 690.635 947.429 690.594 947.586 690.562L948.336 693.875C948.086 693.969 947.737 694.062 947.289 694.156C946.841 694.26 946.273 694.312 945.586 694.312C944.544 694.312 943.523 694.088 942.523 693.641C941.533 693.193 940.711 692.51 940.054 691.594C939.408 690.677 939.086 689.521 939.086 688.125V664.25ZM958.747 694.562C957.227 694.562 955.846 694.276 954.607 693.703C953.367 693.12 952.383 692.281 951.654 691.187C950.925 690.083 950.56 688.75 950.56 687.187C950.56 685.812 950.831 684.698 951.372 683.844C951.914 682.979 952.638 682.302 953.544 681.812C954.451 681.323 955.451 680.958 956.544 680.719C957.649 680.469 958.758 680.271 959.872 680.125C961.331 679.937 962.513 679.797 963.419 679.703C964.336 679.599 965.003 679.427 965.419 679.187C965.846 678.948 966.06 678.531 966.06 677.937V677.812C966.06 676.271 965.638 675.073 964.794 674.219C963.961 673.364 962.695 672.937 960.997 672.937C959.237 672.937 957.857 673.323 956.857 674.094C955.857 674.864 955.154 675.687 954.747 676.562L951.247 675.312C951.872 673.854 952.706 672.719 953.747 671.906C954.8 671.083 955.945 670.51 957.185 670.187C958.435 669.854 959.664 669.687 960.872 669.687C961.643 669.687 962.529 669.781 963.529 669.969C964.539 670.146 965.513 670.516 966.451 671.078C967.399 671.641 968.185 672.489 968.81 673.625C969.435 674.76 969.747 676.281 969.747 678.187V694H966.06V690.75H965.872C965.622 691.271 965.206 691.828 964.622 692.422C964.039 693.016 963.263 693.521 962.294 693.937C961.326 694.354 960.143 694.562 958.747 694.562ZM959.31 691.25C960.768 691.25 961.997 690.963 962.997 690.391C964.008 689.818 964.768 689.078 965.279 688.172C965.8 687.266 966.06 686.312 966.06 685.312V681.937C965.904 682.125 965.56 682.297 965.029 682.453C964.508 682.599 963.904 682.729 963.216 682.844C962.539 682.948 961.878 683.042 961.232 683.125C960.596 683.198 960.081 683.26 959.685 683.312C958.727 683.437 957.831 683.641 956.997 683.922C956.175 684.193 955.508 684.604 954.997 685.156C954.497 685.698 954.247 686.437 954.247 687.375C954.247 688.656 954.721 689.625 955.669 690.281C956.628 690.927 957.841 691.25 959.31 691.25ZM977.405 694.25C976.635 694.25 975.973 693.974 975.421 693.422C974.869 692.87 974.593 692.208 974.593 691.437C974.593 690.667 974.869 690.005 975.421 689.453C975.973 688.901 976.635 688.625 977.405 688.625C978.176 688.625 978.838 688.901 979.39 689.453C979.942 690.005 980.218 690.667 980.218 691.437C980.218 691.948 980.088 692.417 979.827 692.844C979.577 693.271 979.239 693.614 978.812 693.875C978.395 694.125 977.926 694.25 977.405 694.25Z"
      fill="#E5E5E5" />
  </g>
  <g id="two">
    <circle cx="567.22" cy="546" r="300" fill="#A792D0" fill-opacity="0.1" />
    <circle cx="567.22" cy="546" r="299.5" stroke="#6031AC" stroke-opacity="0.4" />
    <circle cx="567.22" cy="546" r="217" fill="#A792D0" fill-opacity="0.1" />
    <circle cx="567.22" cy="546" r="216.5" stroke="#6031AC" stroke-opacity="0.4" />
    <circle cx="567.22" cy="546" r="154" fill="#A792D0" fill-opacity="0.1" />
    <circle cx="567.22" cy="546" r="153.5" stroke="#6031AC" stroke-opacity="0.4" />
    <circle cx="567.22" cy="546" r="368" fill="#A792D0" fill-opacity="0.1" />
    <circle cx="567.22" cy="546" r="367.5" stroke="#6031AC" stroke-opacity="0.4" />
    <circle cx="567.22" cy="546" r="421" fill="#A792D0" fill-opacity="0.1" />
    <circle cx="567.22" cy="546" r="420.5" stroke="#6031AC" stroke-opacity="0.4" />
    <circle cx="567.22" cy="546" r="478" fill="#A792D0" fill-opacity="0.1" />
    <circle cx="567.22" cy="546" r="477.5" stroke="#6031AC" stroke-opacity="0.4" />
    <circle cx="567.22" cy="546" r="546" fill="#A792D0" fill-opacity="0.1" />
    <circle cx="567.22" cy="546" r="545.5" stroke="#6031AC" stroke-opacity="0.4" />
    <path
      d="M239.46 633.5H240.294L239.901 632.764L185.046 530.172L275.953 428.373L276.697 427.54H275.58H196.2H195.969L195.82 427.715L147.171 484.679L118.948 427.817L118.81 427.54H118.5H39.12H38.2838L38.6795 428.276L93.1153 529.611L2.62428 632.67L1.89559 633.5H3H81.12H81.3489L81.4985 633.327L131.413 575.509L160.895 633.227L161.034 633.5H161.34H239.46ZM623.413 575.062L623.453 574.168L622.671 574.603C617.713 577.357 612.059 578.74 605.693 578.74C601.558 578.74 598.55 577.808 596.578 576.033C594.616 574.267 593.594 571.588 593.594 567.9C593.594 566.532 593.73 565.02 594.007 563.362L604.507 500.782L604.507 500.782C605.912 492.35 606.613 482.942 606.613 472.56C606.613 462.104 603.786 452.49 598.134 443.729L598.13 443.722C589.58 430.898 571.002 424.6 542.693 424.6C514.883 424.6 492.552 436.418 475.737 460.006C473.031 448.385 466.589 439.604 456.425 433.697C445.959 427.616 431.579 424.6 413.333 424.6C388.04 424.6 367.029 434.537 350.332 454.38L354.605 431.07L354.713 430.48H354.113H287.753H287.334L287.261 430.893L251.561 632.913L251.457 633.5H252.053H323.453H323.873L323.946 633.087L347.44 500.094C356.01 491.021 366.206 486.5 378.053 486.5C385.55 486.5 391.079 488.167 394.731 491.413C398.372 494.65 400.233 499.533 400.233 506.16C400.233 511.171 399.816 516.183 398.981 521.195C398.981 521.196 398.98 521.197 398.98 521.198L379.241 632.913L379.137 633.5H379.733H451.133H451.554L451.626 633.086L474.286 503.421C482.583 492.136 493.888 486.5 508.253 486.5C515.608 486.5 521.03 488.166 524.613 491.41C528.186 494.646 530.013 499.53 530.013 506.16C530.013 511.172 529.596 516.184 528.76 521.198L519.941 572.854C518.817 579.318 518.253 585.367 518.253 591C518.253 607.062 523.048 619.192 532.712 627.293C542.359 635.38 556.776 639.38 575.873 639.38C592.792 639.38 607.885 633.878 621.133 622.885L621.303 622.743L621.313 622.522L623.413 575.062ZM739.221 575.062L739.261 574.168L738.479 574.603C733.533 577.351 727.323 578.74 719.822 578.74C716.259 578.74 713.679 577.849 711.985 576.156C710.292 574.463 709.402 571.883 709.402 568.32C709.402 566.669 709.539 565.017 709.815 563.364C709.815 563.364 709.815 563.363 709.815 563.362L753.914 314.307L754.018 313.72H753.422H682.022H681.603L681.529 314.133L635.75 572.853L635.749 572.858C634.623 579.612 634.062 587.48 634.062 596.46C634.062 605.514 636.468 613.866 641.279 621.506L641.281 621.51C648.989 633.499 665.748 639.38 691.262 639.38C708.181 639.38 723.411 633.878 736.937 622.888L737.112 622.746L737.121 622.522L739.221 575.062ZM828.395 537.747L836.722 490.7H952.223H952.642L952.715 490.287L963.215 431.067L963.319 430.48H962.723H847.397L859.476 360.925L859.631 360.029L858.791 360.378L781.931 392.298L781.678 392.403L781.63 392.673L753.07 555.213L753.07 555.218C751.946 561.961 751.383 568.288 751.383 574.2C751.383 592.224 756.737 606.64 767.487 617.391C781.904 632.09 805.447 639.38 837.983 639.38C871.528 639.38 898.221 630.852 918.005 613.743C937.787 596.636 950.602 571.001 956.496 536.905L956.597 536.32H956.003H886.283H885.864L885.791 536.732C883.561 549.274 879.387 559.267 873.295 566.744L873.288 566.753C867.495 574.201 860.217 577.9 851.423 577.9C843.106 577.9 836.959 575.718 832.885 571.44C828.806 567.157 826.723 560.689 826.723 551.94C826.723 547.783 827.277 543.058 828.392 537.763L828.394 537.755L828.395 537.747ZM1175.23 430.822L1175.11 430.48H1174.75H1103.35H1102.77L1102.86 431.058L1104.11 439.024C1104.12 439.027 1104.12 439.03 1104.12 439.033C1106.35 456.372 1107.47 472.168 1107.47 486.42C1107.47 516.916 1103.83 539.716 1096.6 554.874C1092.99 562.447 1088.49 568.094 1083.11 571.847C1077.75 575.598 1071.48 577.48 1064.29 577.48C1056.1 577.48 1050.06 575.502 1046.05 571.635C1042.05 567.771 1040.01 561.938 1040.01 554.04C1040.01 550.72 1040.43 546.974 1041.26 542.798L1041.26 542.787L1061 431.067L1061.11 430.48H1060.51H989.111H988.692L988.618 430.892L968.88 542.186C968.879 542.188 968.879 542.189 968.879 542.19C966.635 553.971 965.511 564.502 965.511 573.78C965.511 593.445 970.004 608.153 979.087 617.802C992.673 632.238 1017.07 639.38 1052.11 639.38C1074.59 639.38 1094.41 634.463 1111.58 624.613L1111.58 624.612C1129.01 614.493 1142.51 601.415 1152.08 585.376C1161.9 569.097 1169.2 551.974 1173.97 534.008C1178.75 516.044 1181.13 497.381 1181.13 478.02C1181.13 458.393 1179.17 442.653 1175.23 430.822Z"
      fill="url(#lightGradient)" stroke="white" />
    <path
      d="M154.345 665.437V662H178.345V665.437H168.282V694H164.407V665.437H154.345ZM181.69 703C181.065 703 180.508 702.948 180.019 702.844C179.529 702.75 179.19 702.656 179.003 702.562L179.94 699.312C180.836 699.541 181.628 699.625 182.315 699.562C183.003 699.5 183.612 699.192 184.144 698.64C184.685 698.099 185.18 697.219 185.628 696L186.315 694.125L177.44 670H181.44L188.065 689.125H188.315L194.94 670H198.94L188.753 697.5C188.295 698.739 187.727 699.765 187.05 700.578C186.373 701.401 185.586 702.01 184.69 702.406C183.805 702.802 182.805 703 181.69 703ZM202.048 703V670H205.61V673.812H206.048C206.318 673.396 206.693 672.864 207.173 672.219C207.662 671.562 208.36 670.979 209.266 670.469C210.183 669.948 211.423 669.687 212.985 669.687C215.006 669.687 216.787 670.192 218.329 671.203C219.871 672.213 221.074 673.646 221.938 675.5C222.803 677.354 223.235 679.541 223.235 682.062C223.235 684.604 222.803 686.807 221.938 688.672C221.074 690.526 219.876 691.963 218.345 692.984C216.813 693.995 215.048 694.5 213.048 694.5C211.506 694.5 210.272 694.245 209.345 693.734C208.417 693.213 207.704 692.625 207.204 691.969C206.704 691.302 206.318 690.75 206.048 690.312H205.735V703H202.048ZM205.673 682C205.673 683.812 205.938 685.411 206.47 686.797C207.001 688.172 207.777 689.25 208.798 690.031C209.818 690.802 211.068 691.187 212.548 691.187C214.089 691.187 215.376 690.781 216.407 689.969C217.449 689.146 218.23 688.041 218.751 686.656C219.282 685.26 219.548 683.708 219.548 682C219.548 680.312 219.287 678.791 218.766 677.437C218.256 676.073 217.48 674.995 216.438 674.203C215.407 673.401 214.11 673 212.548 673C211.048 673 209.787 673.38 208.766 674.14C207.746 674.89 206.975 675.942 206.454 677.297C205.933 678.64 205.673 680.208 205.673 682ZM237.163 694.5C234.85 694.5 232.855 693.989 231.178 692.969C229.512 691.937 228.225 690.5 227.319 688.656C226.423 686.802 225.975 684.646 225.975 682.187C225.975 679.729 226.423 677.562 227.319 675.687C228.225 673.802 229.486 672.333 231.1 671.281C232.725 670.219 234.621 669.687 236.788 669.687C238.038 669.687 239.272 669.896 240.491 670.312C241.71 670.729 242.819 671.406 243.819 672.344C244.819 673.271 245.616 674.5 246.21 676.031C246.803 677.562 247.1 679.448 247.1 681.687V683.25H228.6V680.062H243.35C243.35 678.708 243.079 677.5 242.538 676.437C242.006 675.375 241.246 674.536 240.256 673.922C239.277 673.307 238.121 673 236.788 673C235.319 673 234.048 673.364 232.975 674.094C231.913 674.812 231.095 675.75 230.522 676.906C229.949 678.062 229.663 679.302 229.663 680.625V682.75C229.663 684.562 229.975 686.099 230.6 687.359C231.236 688.609 232.116 689.562 233.241 690.219C234.366 690.864 235.673 691.187 237.163 691.187C238.131 691.187 239.006 691.052 239.788 690.781C240.579 690.5 241.262 690.083 241.835 689.531C242.407 688.969 242.85 688.271 243.163 687.437L246.725 688.437C246.35 689.646 245.72 690.708 244.835 691.625C243.949 692.531 242.855 693.239 241.553 693.75C240.251 694.25 238.788 694.5 237.163 694.5ZM268.95 670C268.762 668.416 268.002 667.187 266.668 666.312C265.335 665.437 263.7 665 261.762 665C260.345 665 259.106 665.229 258.043 665.687C256.991 666.146 256.168 666.776 255.575 667.578C254.991 668.38 254.7 669.291 254.7 670.312C254.7 671.166 254.903 671.901 255.309 672.515C255.726 673.12 256.257 673.625 256.903 674.031C257.548 674.427 258.226 674.755 258.934 675.015C259.642 675.265 260.293 675.469 260.887 675.625L264.137 676.5C264.97 676.719 265.897 677.021 266.918 677.406C267.95 677.791 268.934 678.317 269.871 678.984C270.819 679.64 271.601 680.484 272.215 681.515C272.83 682.547 273.137 683.812 273.137 685.312C273.137 687.041 272.684 688.604 271.778 690C270.882 691.396 269.569 692.505 267.84 693.328C266.121 694.151 264.033 694.562 261.575 694.562C259.283 694.562 257.298 694.192 255.621 693.453C253.955 692.713 252.642 691.682 251.684 690.359C250.736 689.036 250.2 687.5 250.075 685.75H254.075C254.179 686.958 254.585 687.958 255.293 688.75C256.012 689.531 256.918 690.114 258.012 690.5C259.116 690.875 260.304 691.062 261.575 691.062C263.054 691.062 264.382 690.823 265.559 690.344C266.736 689.854 267.668 689.177 268.356 688.312C269.043 687.437 269.387 686.416 269.387 685.25C269.387 684.187 269.09 683.323 268.496 682.656C267.903 681.989 267.121 681.448 266.153 681.031C265.184 680.614 264.137 680.25 263.012 679.937L259.075 678.812C256.575 678.094 254.595 677.067 253.137 675.734C251.679 674.401 250.95 672.656 250.95 670.5C250.95 668.708 251.434 667.146 252.403 665.812C253.382 664.469 254.694 663.427 256.34 662.687C257.996 661.937 259.845 661.562 261.887 661.562C263.95 661.562 265.783 661.932 267.387 662.672C268.991 663.401 270.262 664.401 271.2 665.672C272.147 666.942 272.647 668.385 272.7 670H268.95ZM286.998 694.5C284.748 694.5 282.811 693.969 281.186 692.906C279.561 691.844 278.311 690.38 277.436 688.515C276.561 686.651 276.123 684.521 276.123 682.125C276.123 679.687 276.571 677.536 277.467 675.672C278.373 673.797 279.634 672.333 281.248 671.281C282.873 670.219 284.769 669.687 286.936 669.687C288.623 669.687 290.144 670 291.498 670.625C292.852 671.25 293.962 672.125 294.826 673.25C295.691 674.375 296.227 675.687 296.436 677.187H292.748C292.467 676.094 291.842 675.125 290.873 674.281C289.915 673.427 288.623 673 286.998 673C285.561 673 284.3 673.375 283.217 674.125C282.144 674.864 281.305 675.911 280.701 677.265C280.107 678.609 279.811 680.187 279.811 682C279.811 683.854 280.102 685.469 280.686 686.844C281.279 688.219 282.113 689.286 283.186 690.047C284.269 690.807 285.54 691.187 286.998 691.187C287.956 691.187 288.826 691.021 289.607 690.687C290.389 690.354 291.05 689.875 291.592 689.25C292.134 688.625 292.519 687.875 292.748 687H296.436C296.227 688.416 295.712 689.692 294.889 690.828C294.076 691.953 292.998 692.849 291.654 693.515C290.321 694.172 288.769 694.5 286.998 694.5ZM300.066 694V670H303.629V673.625H303.879C304.316 672.437 305.108 671.474 306.254 670.734C307.4 669.995 308.691 669.625 310.129 669.625C310.4 669.625 310.738 669.63 311.144 669.64C311.551 669.651 311.858 669.666 312.066 669.687V673.437C311.941 673.406 311.655 673.359 311.207 673.297C310.769 673.224 310.306 673.187 309.816 673.187C308.65 673.187 307.608 673.432 306.691 673.922C305.785 674.401 305.066 675.067 304.535 675.922C304.014 676.765 303.754 677.729 303.754 678.812V694H300.066ZM314.677 694V670H318.365V694H314.677ZM316.552 666C315.834 666 315.214 665.755 314.693 665.265C314.183 664.776 313.927 664.187 313.927 663.5C313.927 662.812 314.183 662.224 314.693 661.734C315.214 661.245 315.834 661 316.552 661C317.271 661 317.886 661.245 318.396 661.734C318.917 662.224 319.177 662.812 319.177 663.5C319.177 664.187 318.917 664.776 318.396 665.265C317.886 665.755 317.271 666 316.552 666ZM323.359 703V670H326.921V673.812H327.359C327.63 673.396 328.005 672.864 328.484 672.219C328.973 671.562 329.671 670.979 330.577 670.469C331.494 669.948 332.734 669.687 334.296 669.687C336.317 669.687 338.098 670.192 339.64 671.203C341.182 672.213 342.385 673.646 343.249 675.5C344.114 677.354 344.546 679.541 344.546 682.062C344.546 684.604 344.114 686.807 343.249 688.672C342.385 690.526 341.187 691.963 339.656 692.984C338.124 693.995 336.359 694.5 334.359 694.5C332.817 694.5 331.583 694.245 330.656 693.734C329.729 693.213 329.015 692.625 328.515 691.969C328.015 691.302 327.63 690.75 327.359 690.312H327.046V703H323.359ZM326.984 682C326.984 683.812 327.249 685.411 327.781 686.797C328.312 688.172 329.088 689.25 330.109 690.031C331.13 690.802 332.38 691.187 333.859 691.187C335.4 691.187 336.687 690.781 337.718 689.969C338.76 689.146 339.541 688.041 340.062 686.656C340.593 685.26 340.859 683.708 340.859 682C340.859 680.312 340.598 678.791 340.077 677.437C339.567 676.073 338.791 674.995 337.749 674.203C336.718 673.401 335.421 673 333.859 673C332.359 673 331.098 673.38 330.077 674.14C329.057 674.89 328.286 675.942 327.765 677.297C327.244 678.64 326.984 680.208 326.984 682ZM358.849 670V673.125H346.411V670H358.849ZM350.036 664.25H353.724V687.125C353.724 688.166 353.875 688.948 354.177 689.469C354.489 689.979 354.885 690.323 355.364 690.5C355.854 690.666 356.37 690.75 356.911 690.75C357.317 690.75 357.651 690.729 357.911 690.687C358.172 690.635 358.38 690.594 358.536 690.562L359.286 693.875C359.036 693.969 358.687 694.062 358.239 694.156C357.791 694.26 357.224 694.312 356.536 694.312C355.495 694.312 354.474 694.088 353.474 693.64C352.484 693.192 351.661 692.51 351.005 691.594C350.359 690.677 350.036 689.521 350.036 688.125V664.25ZM383.688 670V673.125H371.251V670H383.688ZM374.876 664.25H378.563V687.125C378.563 688.166 378.714 688.948 379.016 689.469C379.329 689.979 379.725 690.323 380.204 690.5C380.693 690.666 381.209 690.75 381.751 690.75C382.157 690.75 382.49 690.729 382.751 690.687C383.011 690.635 383.219 690.594 383.376 690.562L384.126 693.875C383.876 693.969 383.527 694.062 383.079 694.156C382.631 694.26 382.063 694.312 381.376 694.312C380.334 694.312 379.313 694.088 378.313 693.64C377.324 693.192 376.501 692.51 375.844 691.594C375.199 690.677 374.876 689.521 374.876 688.125V664.25ZM396.967 694.5C394.8 694.5 392.899 693.984 391.264 692.953C389.639 691.922 388.368 690.479 387.452 688.625C386.545 686.771 386.092 684.604 386.092 682.125C386.092 679.625 386.545 677.442 387.452 675.578C388.368 673.713 389.639 672.265 391.264 671.234C392.899 670.203 394.8 669.687 396.967 669.687C399.134 669.687 401.03 670.203 402.655 671.234C404.29 672.265 405.561 673.713 406.467 675.578C407.384 677.442 407.842 679.625 407.842 682.125C407.842 684.604 407.384 686.771 406.467 688.625C405.561 690.479 404.29 691.922 402.655 692.953C401.03 693.984 399.134 694.5 396.967 694.5ZM396.967 691.187C398.613 691.187 399.967 690.765 401.03 689.922C402.092 689.078 402.879 687.969 403.389 686.594C403.899 685.219 404.155 683.729 404.155 682.125C404.155 680.521 403.899 679.026 403.389 677.64C402.879 676.255 402.092 675.135 401.03 674.281C399.967 673.427 398.613 673 396.967 673C395.321 673 393.967 673.427 392.905 674.281C391.842 675.135 391.056 676.255 390.545 677.64C390.035 679.026 389.78 680.521 389.78 682.125C389.78 683.729 390.035 685.219 390.545 686.594C391.056 687.969 391.842 689.078 392.905 689.922C393.967 690.765 395.321 691.187 396.967 691.187ZM421.461 694.5C419.294 694.5 417.393 693.984 415.758 692.953C414.133 691.922 412.862 690.479 411.945 688.625C411.039 686.771 410.586 684.604 410.586 682.125C410.586 679.625 411.039 677.442 411.945 675.578C412.862 673.713 414.133 672.265 415.758 671.234C417.393 670.203 419.294 669.687 421.461 669.687C423.628 669.687 425.524 670.203 427.149 671.234C428.784 672.265 430.055 673.713 430.961 675.578C431.878 677.442 432.336 679.625 432.336 682.125C432.336 684.604 431.878 686.771 430.961 688.625C430.055 690.479 428.784 691.922 427.149 692.953C425.524 693.984 423.628 694.5 421.461 694.5ZM421.461 691.187C423.107 691.187 424.461 690.765 425.524 689.922C426.586 689.078 427.373 687.969 427.883 686.594C428.393 685.219 428.649 683.729 428.649 682.125C428.649 680.521 428.393 679.026 427.883 677.64C427.373 676.255 426.586 675.135 425.524 674.281C424.461 673.427 423.107 673 421.461 673C419.815 673 418.461 673.427 417.399 674.281C416.336 675.135 415.55 676.255 415.039 677.64C414.529 679.026 414.274 680.521 414.274 682.125C414.274 683.729 414.529 685.219 415.039 686.594C415.55 687.969 416.336 689.078 417.399 689.922C418.461 690.765 419.815 691.187 421.461 691.187ZM439.892 662V694H436.205V662H439.892ZM461.886 675.375L458.574 676.312C458.366 675.76 458.058 675.224 457.652 674.703C457.256 674.172 456.715 673.734 456.027 673.39C455.34 673.047 454.459 672.875 453.386 672.875C451.918 672.875 450.694 673.213 449.715 673.89C448.746 674.557 448.261 675.406 448.261 676.437C448.261 677.354 448.595 678.078 449.261 678.609C449.928 679.14 450.97 679.583 452.386 679.937L455.949 680.812C458.095 681.333 459.694 682.13 460.746 683.203C461.798 684.265 462.324 685.635 462.324 687.312C462.324 688.687 461.928 689.916 461.136 691C460.355 692.083 459.261 692.937 457.855 693.562C456.449 694.187 454.813 694.5 452.949 694.5C450.501 694.5 448.475 693.969 446.871 692.906C445.267 691.844 444.251 690.291 443.824 688.25L447.324 687.375C447.657 688.666 448.287 689.635 449.215 690.281C450.152 690.927 451.376 691.25 452.886 691.25C454.605 691.25 455.97 690.885 456.98 690.156C458.001 689.416 458.511 688.531 458.511 687.5C458.511 686.666 458.22 685.969 457.636 685.406C457.053 684.833 456.157 684.406 454.949 684.125L450.949 683.187C448.751 682.666 447.136 681.859 446.105 680.765C445.084 679.661 444.574 678.281 444.574 676.625C444.574 675.271 444.954 674.073 445.715 673.031C446.485 671.989 447.532 671.172 448.855 670.578C450.188 669.984 451.699 669.687 453.386 669.687C455.761 669.687 457.626 670.208 458.98 671.25C460.345 672.291 461.313 673.666 461.886 675.375ZM487.417 670V673.125H474.48V670H487.417ZM478.355 694V666.687C478.355 665.312 478.678 664.166 479.323 663.25C479.969 662.333 480.808 661.646 481.839 661.187C482.87 660.729 483.959 660.5 485.105 660.5C486.011 660.5 486.75 660.573 487.323 660.719C487.896 660.864 488.323 661 488.605 661.125L487.542 664.312C487.355 664.25 487.094 664.172 486.761 664.078C486.438 663.984 486.011 663.937 485.48 663.937C484.261 663.937 483.381 664.245 482.839 664.859C482.308 665.474 482.042 666.375 482.042 667.562V694H478.355ZM499.587 694.5C497.42 694.5 495.519 693.984 493.884 692.953C492.259 691.922 490.988 690.479 490.071 688.625C489.165 686.771 488.712 684.604 488.712 682.125C488.712 679.625 489.165 677.442 490.071 675.578C490.988 673.713 492.259 672.265 493.884 671.234C495.519 670.203 497.42 669.687 499.587 669.687C501.754 669.687 503.649 670.203 505.274 671.234C506.91 672.265 508.181 673.713 509.087 675.578C510.004 677.442 510.462 679.625 510.462 682.125C510.462 684.604 510.004 686.771 509.087 688.625C508.181 690.479 506.91 691.922 505.274 692.953C503.649 693.984 501.754 694.5 499.587 694.5ZM499.587 691.187C501.233 691.187 502.587 690.765 503.649 689.922C504.712 689.078 505.498 687.969 506.009 686.594C506.519 685.219 506.774 683.729 506.774 682.125C506.774 680.521 506.519 679.026 506.009 677.64C505.498 676.255 504.712 675.135 503.649 674.281C502.587 673.427 501.233 673 499.587 673C497.941 673 496.587 673.427 495.524 674.281C494.462 675.135 493.675 676.255 493.165 677.64C492.655 679.026 492.399 680.521 492.399 682.125C492.399 683.729 492.655 685.219 493.165 686.594C493.675 687.969 494.462 689.078 495.524 689.922C496.587 690.765 497.941 691.187 499.587 691.187ZM514.331 694V670H517.893V673.625H518.143C518.581 672.437 519.372 671.474 520.518 670.734C521.664 669.995 522.956 669.625 524.393 669.625C524.664 669.625 525.003 669.63 525.409 669.64C525.815 669.651 526.122 669.666 526.331 669.687V673.437C526.206 673.406 525.919 673.359 525.471 673.297C525.034 673.224 524.57 673.187 524.081 673.187C522.914 673.187 521.872 673.432 520.956 673.922C520.049 674.401 519.331 675.067 518.799 675.922C518.279 676.765 518.018 677.729 518.018 678.812V694H514.331ZM544.994 694L537.682 670H541.557L546.744 688.375H546.994L552.119 670H556.057L561.119 688.312H561.369L566.557 670H570.432L563.119 694H559.494L554.244 675.562H553.869L548.619 694H544.994ZM582.48 694.5C580.314 694.5 578.413 693.984 576.777 692.953C575.152 691.922 573.881 690.479 572.965 688.625C572.059 686.771 571.605 684.604 571.605 682.125C571.605 679.625 572.059 677.442 572.965 675.578C573.881 673.713 575.152 672.265 576.777 671.234C578.413 670.203 580.314 669.687 582.48 669.687C584.647 669.687 586.543 670.203 588.168 671.234C589.803 672.265 591.074 673.713 591.98 675.578C592.897 677.442 593.355 679.625 593.355 682.125C593.355 684.604 592.897 686.771 591.98 688.625C591.074 690.479 589.803 691.922 588.168 692.953C586.543 693.984 584.647 694.5 582.48 694.5ZM582.48 691.187C584.126 691.187 585.48 690.765 586.543 689.922C587.605 689.078 588.392 687.969 588.902 686.594C589.413 685.219 589.668 683.729 589.668 682.125C589.668 680.521 589.413 679.026 588.902 677.64C588.392 676.255 587.605 675.135 586.543 674.281C585.48 673.427 584.126 673 582.48 673C580.835 673 579.48 673.427 578.418 674.281C577.355 675.135 576.569 676.255 576.059 677.64C575.548 679.026 575.293 680.521 575.293 682.125C575.293 683.729 575.548 685.219 576.059 686.594C576.569 687.969 577.355 689.078 578.418 689.922C579.48 690.765 580.835 691.187 582.48 691.187ZM597.224 694V670H600.787V673.625H601.037C601.474 672.437 602.266 671.474 603.412 670.734C604.558 669.995 605.849 669.625 607.287 669.625C607.558 669.625 607.896 669.63 608.302 669.64C608.709 669.651 609.016 669.666 609.224 669.687V673.437C609.099 673.406 608.813 673.359 608.365 673.297C607.927 673.224 607.464 673.187 606.974 673.187C605.808 673.187 604.766 673.432 603.849 673.922C602.943 674.401 602.224 675.067 601.693 675.922C601.172 676.765 600.912 677.729 600.912 678.812V694H597.224ZM615.273 685.25L615.21 680.687H615.96L626.46 670H631.023L619.835 681.312H619.523L615.273 685.25ZM611.835 694V662H615.523V694H611.835ZM627.085 694L617.71 682.125L620.335 679.562L631.773 694H627.085ZM634.009 694V670H637.697V694H634.009ZM635.884 666C635.165 666 634.545 665.755 634.025 665.265C633.514 664.776 633.259 664.187 633.259 663.5C633.259 662.812 633.514 662.224 634.025 661.734C634.545 661.245 635.165 661 635.884 661C636.603 661 637.217 661.245 637.728 661.734C638.249 662.224 638.509 662.812 638.509 663.5C638.509 664.187 638.249 664.776 637.728 665.265C637.217 665.755 636.603 666 635.884 666ZM646.378 679.562V694H642.69V670H646.253V673.75H646.565C647.128 672.531 647.982 671.552 649.128 670.812C650.274 670.062 651.753 669.687 653.565 669.687C655.19 669.687 656.612 670.021 657.831 670.687C659.05 671.344 659.998 672.344 660.675 673.687C661.352 675.021 661.69 676.708 661.69 678.75V694H658.003V679C658.003 677.114 657.513 675.646 656.534 674.594C655.555 673.531 654.211 673 652.503 673C651.326 673 650.274 673.255 649.347 673.765C648.43 674.276 647.706 675.021 647.175 676C646.644 676.979 646.378 678.166 646.378 679.562ZM676.356 703.5C674.575 703.5 673.044 703.271 671.762 702.812C670.481 702.364 669.414 701.771 668.559 701.031C667.716 700.302 667.044 699.521 666.544 698.687L669.481 696.625C669.815 697.062 670.236 697.562 670.747 698.125C671.257 698.698 671.955 699.192 672.841 699.609C673.736 700.036 674.908 700.25 676.356 700.25C678.294 700.25 679.893 699.781 681.153 698.844C682.414 697.906 683.044 696.437 683.044 694.437V689.562H682.731C682.46 690 682.075 690.541 681.575 691.187C681.085 691.823 680.377 692.39 679.45 692.89C678.533 693.38 677.294 693.625 675.731 693.625C673.794 693.625 672.054 693.166 670.512 692.25C668.981 691.333 667.768 690 666.872 688.25C665.986 686.5 665.544 684.375 665.544 681.875C665.544 679.416 665.976 677.276 666.841 675.453C667.705 673.62 668.908 672.203 670.45 671.203C671.992 670.192 673.773 669.687 675.794 669.687C677.356 669.687 678.596 669.948 679.512 670.469C680.44 670.979 681.148 671.562 681.637 672.219C682.137 672.864 682.523 673.396 682.794 673.812H683.169V670H686.731V694.687C686.731 696.75 686.262 698.427 685.325 699.719C684.398 701.021 683.148 701.974 681.575 702.578C680.012 703.192 678.273 703.5 676.356 703.5ZM676.231 690.312C677.71 690.312 678.96 689.974 679.981 689.297C681.002 688.62 681.778 687.646 682.309 686.375C682.841 685.104 683.106 683.583 683.106 681.812C683.106 680.083 682.846 678.557 682.325 677.234C681.804 675.911 681.033 674.875 680.012 674.125C678.992 673.375 677.731 673 676.231 673C674.669 673 673.367 673.396 672.325 674.187C671.294 674.979 670.518 676.041 669.997 677.375C669.486 678.708 669.231 680.187 669.231 681.812C669.231 683.479 669.492 684.953 670.012 686.234C670.544 687.505 671.325 688.505 672.356 689.234C673.398 689.953 674.69 690.312 676.231 690.312ZM707.774 694L700.461 670H704.336L709.524 688.375H709.774L714.899 670H718.836L723.899 688.312H724.149L729.336 670H733.211L725.899 694H722.274L717.024 675.562H716.649L711.399 694H707.774ZM736.326 694V670H740.014V694H736.326ZM738.201 666C737.482 666 736.863 665.755 736.342 665.265C735.831 664.776 735.576 664.187 735.576 663.5C735.576 662.812 735.831 662.224 736.342 661.734C736.863 661.245 737.482 661 738.201 661C738.92 661 739.535 661.245 740.045 661.734C740.566 662.224 740.826 662.812 740.826 663.5C740.826 664.187 740.566 664.776 740.045 665.265C739.535 665.755 738.92 666 738.201 666ZM755.445 670V673.125H743.008V670H755.445ZM746.633 664.25H750.32V687.125C750.32 688.166 750.471 688.948 750.773 689.469C751.086 689.979 751.482 690.323 751.961 690.5C752.45 690.666 752.966 690.75 753.508 690.75C753.914 690.75 754.247 690.729 754.508 690.687C754.768 690.635 754.976 690.594 755.133 690.562L755.883 693.875C755.633 693.969 755.284 694.062 754.836 694.156C754.388 694.26 753.82 694.312 753.133 694.312C752.091 694.312 751.07 694.088 750.07 693.64C749.081 693.192 748.258 692.51 747.601 691.594C746.956 690.677 746.633 689.521 746.633 688.125V664.25ZM763.435 679.562V694H759.748V662H763.435V673.75H763.748C764.31 672.51 765.154 671.526 766.279 670.797C767.414 670.057 768.925 669.687 770.81 669.687C772.446 669.687 773.878 670.015 775.107 670.672C776.336 671.317 777.289 672.312 777.966 673.656C778.654 674.989 778.998 676.687 778.998 678.75V694H775.31V679C775.31 677.094 774.815 675.62 773.826 674.578C772.847 673.526 771.487 673 769.748 673C768.539 673 767.456 673.255 766.498 673.765C765.55 674.276 764.8 675.021 764.248 676C763.706 676.979 763.435 678.166 763.435 679.562ZM795.099 694V662H814.411V665.437H798.974V676.25H813.411V679.687H798.974V690.562H814.661V694H795.099ZM819.636 694V662H830.448C832.959 662 835.011 662.453 836.604 663.359C838.209 664.255 839.396 665.469 840.167 667C840.938 668.531 841.323 670.239 841.323 672.125C841.323 674.01 840.938 675.724 840.167 677.265C839.406 678.807 838.229 680.036 836.636 680.953C835.042 681.859 833 682.312 830.511 682.312H822.761V678.875H830.386C832.104 678.875 833.485 678.578 834.526 677.984C835.568 677.39 836.323 676.588 836.792 675.578C837.271 674.557 837.511 673.406 837.511 672.125C837.511 670.844 837.271 669.698 836.792 668.687C836.323 667.677 835.563 666.885 834.511 666.312C833.459 665.729 832.063 665.437 830.323 665.437H823.511V694H819.636ZM867.68 672C867.337 670.948 866.883 670.005 866.321 669.172C865.769 668.328 865.107 667.609 864.337 667.015C863.576 666.422 862.712 665.969 861.743 665.656C860.774 665.344 859.712 665.187 858.555 665.187C856.659 665.187 854.936 665.677 853.383 666.656C851.831 667.635 850.597 669.078 849.68 670.984C848.764 672.89 848.305 675.229 848.305 678C848.305 680.771 848.769 683.109 849.696 685.015C850.623 686.922 851.878 688.364 853.462 689.344C855.045 690.323 856.826 690.812 858.805 690.812C860.639 690.812 862.253 690.422 863.649 689.64C865.055 688.849 866.149 687.734 866.93 686.297C867.722 684.849 868.118 683.146 868.118 681.187L869.305 681.437H859.68V678H871.868V681.437C871.868 684.073 871.305 686.364 870.18 688.312C869.066 690.26 867.524 691.771 865.555 692.844C863.597 693.906 861.347 694.437 858.805 694.437C855.972 694.437 853.482 693.771 851.337 692.437C849.201 691.104 847.534 689.208 846.337 686.75C845.149 684.291 844.555 681.375 844.555 678C844.555 675.469 844.894 673.192 845.571 671.172C846.258 669.14 847.227 667.411 848.477 665.984C849.727 664.557 851.206 663.463 852.915 662.703C854.623 661.942 856.503 661.562 858.555 661.562C860.243 661.562 861.816 661.817 863.274 662.328C864.743 662.828 866.05 663.541 867.196 664.469C868.352 665.385 869.316 666.484 870.087 667.765C870.857 669.036 871.389 670.448 871.68 672H867.68ZM895.922 694.5C893.922 694.5 892.156 693.995 890.625 692.984C889.094 691.963 887.896 690.526 887.031 688.672C886.167 686.807 885.734 684.604 885.734 682.062C885.734 679.541 886.167 677.354 887.031 675.5C887.896 673.646 889.099 672.213 890.641 671.203C892.182 670.192 893.964 669.687 895.984 669.687C897.547 669.687 898.781 669.948 899.688 670.469C900.604 670.979 901.302 671.562 901.781 672.219C902.271 672.864 902.651 673.396 902.922 673.812H903.234V662H906.922V694H903.359V690.312H902.922C902.651 690.75 902.266 691.302 901.766 691.969C901.266 692.625 900.552 693.213 899.625 693.734C898.698 694.245 897.464 694.5 895.922 694.5ZM896.422 691.187C897.901 691.187 899.151 690.802 900.172 690.031C901.193 689.25 901.969 688.172 902.5 686.797C903.031 685.411 903.297 683.812 903.297 682C903.297 680.208 903.037 678.64 902.516 677.297C901.995 675.942 901.224 674.89 900.203 674.14C899.182 673.38 897.922 673 896.422 673C894.859 673 893.557 673.401 892.516 674.203C891.484 674.995 890.708 676.073 890.188 677.437C889.677 678.791 889.422 680.312 889.422 682C889.422 683.708 889.682 685.26 890.203 686.656C890.734 688.041 891.516 689.146 892.547 689.969C893.589 690.781 894.88 691.187 896.422 691.187ZM919.49 694.562C917.969 694.562 916.589 694.276 915.349 693.703C914.11 693.12 913.126 692.281 912.396 691.187C911.667 690.083 911.303 688.75 911.303 687.187C911.303 685.812 911.573 684.698 912.115 683.844C912.657 682.979 913.381 682.302 914.287 681.812C915.193 681.323 916.193 680.958 917.287 680.719C918.391 680.469 919.501 680.271 920.615 680.125C922.073 679.937 923.256 679.797 924.162 679.703C925.079 679.599 925.745 679.427 926.162 679.187C926.589 678.948 926.803 678.531 926.803 677.937V677.812C926.803 676.271 926.381 675.073 925.537 674.219C924.704 673.364 923.438 672.937 921.74 672.937C919.98 672.937 918.599 673.323 917.599 674.094C916.599 674.864 915.896 675.687 915.49 676.562L911.99 675.312C912.615 673.854 913.448 672.719 914.49 671.906C915.542 671.083 916.688 670.51 917.928 670.187C919.178 669.854 920.407 669.687 921.615 669.687C922.386 669.687 923.271 669.781 924.271 669.969C925.282 670.146 926.256 670.515 927.193 671.078C928.141 671.64 928.928 672.489 929.553 673.625C930.178 674.76 930.49 676.281 930.49 678.187V694H926.803V690.75H926.615C926.365 691.271 925.948 691.828 925.365 692.422C924.782 693.015 924.006 693.521 923.037 693.937C922.068 694.354 920.886 694.562 919.49 694.562ZM920.053 691.25C921.511 691.25 922.74 690.963 923.74 690.39C924.751 689.817 925.511 689.078 926.021 688.172C926.542 687.265 926.803 686.312 926.803 685.312V681.937C926.646 682.125 926.303 682.297 925.771 682.453C925.251 682.599 924.646 682.729 923.959 682.844C923.282 682.948 922.62 683.041 921.974 683.125C921.339 683.198 920.823 683.26 920.428 683.312C919.469 683.437 918.573 683.64 917.74 683.922C916.917 684.192 916.251 684.604 915.74 685.156C915.24 685.698 914.99 686.437 914.99 687.375C914.99 688.656 915.464 689.625 916.412 690.281C917.37 690.927 918.584 691.25 920.053 691.25ZM945.898 670V673.125H933.461V670H945.898ZM937.086 664.25H940.773V687.125C940.773 688.166 940.924 688.948 941.226 689.469C941.539 689.979 941.935 690.323 942.414 690.5C942.903 690.666 943.419 690.75 943.961 690.75C944.367 690.75 944.7 690.729 944.961 690.687C945.221 690.635 945.429 690.594 945.586 690.562L946.336 693.875C946.086 693.969 945.737 694.062 945.289 694.156C944.841 694.26 944.273 694.312 943.586 694.312C942.544 694.312 941.523 694.088 940.523 693.64C939.533 693.192 938.711 692.51 938.054 691.594C937.408 690.677 937.086 689.521 937.086 688.125V664.25ZM956.747 694.562C955.227 694.562 953.846 694.276 952.607 693.703C951.367 693.12 950.383 692.281 949.654 691.187C948.925 690.083 948.56 688.75 948.56 687.187C948.56 685.812 948.831 684.698 949.372 683.844C949.914 682.979 950.638 682.302 951.544 681.812C952.451 681.323 953.451 680.958 954.544 680.719C955.649 680.469 956.758 680.271 957.872 680.125C959.331 679.937 960.513 679.797 961.419 679.703C962.336 679.599 963.003 679.427 963.419 679.187C963.846 678.948 964.06 678.531 964.06 677.937V677.812C964.06 676.271 963.638 675.073 962.794 674.219C961.961 673.364 960.695 672.937 958.997 672.937C957.237 672.937 955.857 673.323 954.857 674.094C953.857 674.864 953.154 675.687 952.747 676.562L949.247 675.312C949.872 673.854 950.706 672.719 951.747 671.906C952.8 671.083 953.945 670.51 955.185 670.187C956.435 669.854 957.664 669.687 958.872 669.687C959.643 669.687 960.529 669.781 961.529 669.969C962.539 670.146 963.513 670.515 964.451 671.078C965.399 671.64 966.185 672.489 966.81 673.625C967.435 674.76 967.747 676.281 967.747 678.187V694H964.06V690.75H963.872C963.622 691.271 963.206 691.828 962.622 692.422C962.039 693.015 961.263 693.521 960.294 693.937C959.326 694.354 958.143 694.562 956.747 694.562ZM957.31 691.25C958.768 691.25 959.997 690.963 960.997 690.39C962.008 689.817 962.768 689.078 963.279 688.172C963.8 687.265 964.06 686.312 964.06 685.312V681.937C963.904 682.125 963.56 682.297 963.029 682.453C962.508 682.599 961.904 682.729 961.216 682.844C960.539 682.948 959.878 683.041 959.232 683.125C958.596 683.198 958.081 683.26 957.685 683.312C956.727 683.437 955.831 683.64 954.997 683.922C954.175 684.192 953.508 684.604 952.997 685.156C952.497 685.698 952.247 686.437 952.247 687.375C952.247 688.656 952.721 689.625 953.669 690.281C954.628 690.927 955.841 691.25 957.31 691.25ZM975.405 694.25C974.635 694.25 973.973 693.974 973.421 693.422C972.869 692.87 972.593 692.208 972.593 691.437C972.593 690.666 972.869 690.005 973.421 689.453C973.973 688.901 974.635 688.625 975.405 688.625C976.176 688.625 976.838 688.901 977.39 689.453C977.942 690.005 978.218 690.666 978.218 691.437C978.218 691.948 978.088 692.416 977.827 692.844C977.577 693.271 977.239 693.614 976.812 693.875C976.395 694.125 975.926 694.25 975.405 694.25Z"
      fill="#0C1117" />
  </g>
  <defs>
    <linearGradient id="lightGradient" x1="360" y1="834" x2="344.388" y2="366.774" gradientUnits="userSpaceOnUse">
      <stop stop-color="#410E20" />
      <stop offset="1" stop-color="#5429B1" />
    </linearGradient>
  </defs>
  <defs>
    <linearGradient id="darkGradient" x1="947.22" y1="436.48" x2="435.905" y2="848.178" gradientUnits="userSpaceOnUse">
      <stop stop-color="#A8FF78" />
      <stop offset="1" stop-color="#DACF50" />
    </linearGradient>
  </defs>
</svg>
