<svg width="2185" height="1092" viewBox="0 0 2185 1092" fill="none" xmlns="http://www.w3.org/2000/svg">
  <g style="transform: translateX(23%);">
    <circle cx="569.22" cy="546" r="300" fill="#0B0615" fill-opacity="0.1" />
    <circle cx="569.22" cy="546" r="299.5" stroke="#B2F771" stroke-opacity="0.1" />
    <circle cx="569.22" cy="546" r="217" fill="#0B0615" fill-opacity="0.1" />
    <circle cx="569.22" cy="546" r="216.5" stroke="#B2F771" stroke-opacity="0.1" />
    <circle cx="569.22" cy="546" r="154" fill="#0B0615" fill-opacity="0.1" />
    <circle cx="569.22" cy="546" r="153.5" stroke="#B2F771" stroke-opacity="0.1" />
    <circle cx="569.22" cy="546" r="368" fill="#0B0615" fill-opacity="0.1" />
    <circle cx="569.22" cy="546" r="367.5" stroke="#B2F771" stroke-opacity="0.1" />
    <circle cx="569.22" cy="546" r="421" fill="#0B0615" fill-opacity="0.1" />
    <circle cx="569.22" cy="546" r="420.5" stroke="#B2F771" stroke-opacity="0.1" />
    <circle cx="569.22" cy="546" r="478" fill="#0B0615" fill-opacity="0.1" />
    <circle cx="569.22" cy="546" r="477.5" stroke="#B2F771" stroke-opacity="0.1" />
    <circle cx="569.22" cy="546" r="546" fill="#0B0615" fill-opacity="0.1" />
    <circle cx="569.22" cy="546" r="545.5" stroke="#B2F771" stroke-opacity="0.1" />
    <path
      d="M241.46 634H243.129L242.342 632.528L187.651 530.245L278.326 428.706L279.814 427.04H277.58H198.2H197.739L197.44 427.39L149.283 483.779L121.396 427.595L121.12 427.04H120.5H41.12H39.4477L40.2391 428.513L94.5106 529.542L4.24856 632.34L2.79117 634H5H83.12H83.5778L83.877 633.653L133.306 576.398L162.449 633.455L162.728 634H163.34H241.46ZM625.912 575.084L625.992 573.297L624.428 574.166C619.553 576.874 613.984 578.24 607.693 578.24C603.623 578.24 600.757 577.322 598.912 575.662C597.088 574.019 596.094 571.497 596.094 567.9C596.094 566.565 596.227 565.081 596.5 563.444L607 500.865L607 500.864C608.411 492.4 609.113 482.964 609.113 472.56C609.113 462.008 606.258 452.3 600.554 443.458L600.55 443.451L600.546 443.445C591.846 430.396 573.03 424.1 544.693 424.1C517.061 424.1 494.795 435.708 477.965 458.834C475.089 447.605 468.652 439.062 458.676 433.265C448.104 427.122 433.626 424.1 415.333 424.1C390.493 424.1 369.749 433.635 353.158 452.647L357.097 431.16L357.313 429.98H356.113H289.753H288.915L288.769 430.806L253.069 632.826L252.861 634H254.053H325.453H326.292L326.438 633.174L349.906 500.329C358.366 491.422 368.399 487 380.053 487C387.486 487 392.874 488.654 396.399 491.787C399.901 494.9 401.733 499.627 401.733 506.16C401.733 511.142 401.318 516.126 400.488 521.111C400.488 521.112 400.487 521.114 400.487 521.115L380.749 632.826L380.541 634H381.733H453.133H453.974L454.119 633.172L476.758 503.623C484.952 492.533 496.083 487 510.253 487C517.542 487 522.823 488.652 526.277 491.781C529.713 494.893 531.513 499.621 531.513 506.16C531.513 511.144 531.098 516.129 530.267 521.115L521.448 572.769C520.32 579.256 519.753 585.334 519.753 591C519.753 607.165 524.583 619.455 534.391 627.676C544.165 635.869 558.718 639.88 577.873 639.88C594.911 639.88 610.116 634.335 623.452 623.269L623.793 622.987L623.812 622.544L625.912 575.084ZM741.721 575.084L741.8 573.297L740.236 574.166C735.384 576.861 729.263 578.24 721.822 578.24C718.336 578.24 715.905 577.369 714.339 575.803C712.773 574.236 711.902 571.806 711.902 568.32C711.902 566.697 712.037 565.074 712.307 563.449C712.308 563.448 712.308 563.446 712.308 563.444L756.407 314.394L756.615 313.22H755.422H684.022H683.183L683.037 314.046L637.257 572.766L637.256 572.775C636.124 579.564 635.562 587.461 635.562 596.46C635.562 605.608 637.995 614.053 642.856 621.773L642.861 621.781C650.715 633.999 667.715 639.88 693.262 639.88C710.299 639.88 725.64 634.336 739.253 623.276L739.601 622.993L739.621 622.544L741.721 575.084ZM830.888 537.834L839.142 491.2H954.223H955.061L955.208 490.374L965.708 431.154L965.916 429.98H964.723H849.992L861.968 361.011L862.279 359.219L860.599 359.916L783.739 391.836L783.233 392.047L783.138 392.587L754.578 555.127L754.577 555.135C753.449 561.901 752.883 568.257 752.883 574.2C752.883 592.329 758.272 606.881 769.132 617.743C783.686 632.58 807.391 639.88 839.983 639.88C873.613 639.88 900.433 631.329 920.332 614.121C940.227 596.917 953.082 571.163 958.988 536.99L959.191 535.82H958.003H888.283H887.445L887.298 536.645C885.079 549.128 880.932 559.035 874.908 566.428L874.901 566.437L874.894 566.446C869.188 573.782 862.051 577.4 853.423 577.4C845.19 577.4 839.196 575.241 835.247 571.095C831.29 566.94 829.223 560.618 829.223 551.94C829.223 547.826 829.772 543.137 830.882 537.866L830.885 537.85L830.888 537.834ZM1177.7 430.664L1177.47 429.98H1176.75H1105.35H1104.18L1104.36 431.136L1105.62 439.088C1105.62 439.092 1105.62 439.097 1105.62 439.101C1107.86 456.423 1108.97 472.195 1108.97 486.42C1108.97 516.892 1105.33 539.602 1098.15 554.659C1094.56 562.174 1090.11 567.745 1084.83 571.438C1079.55 575.124 1073.39 576.98 1066.29 576.98C1058.18 576.98 1052.28 575.02 1048.4 571.276C1044.53 567.538 1042.51 561.857 1042.51 554.04C1042.51 550.761 1042.92 547.048 1043.75 542.896L1043.75 542.885L1043.76 542.874L1063.5 431.154L1063.7 429.98H1062.51H991.111H990.272L990.126 430.805L970.388 542.093C970.388 542.094 970.388 542.095 970.388 542.096C968.14 553.899 967.011 564.463 967.011 573.78C967.011 593.51 971.518 608.365 980.723 618.145C994.455 632.736 1019.04 639.88 1054.11 639.88C1076.66 639.88 1096.58 634.946 1113.83 625.047L1113.83 625.045C1131.33 614.887 1144.89 601.752 1154.51 585.637C1164.35 569.317 1171.67 552.15 1176.46 534.137C1181.24 516.129 1183.63 497.423 1183.63 478.02C1183.63 458.367 1181.67 442.567 1177.7 430.664Z"
      fill="url(#darkGradient)" stroke="black" stroke-width="2" />
    <path
      d="M156.345 665.437V662H180.345V665.437H170.282V694H166.407V665.437H156.345ZM183.69 703C183.065 703 182.508 702.948 182.019 702.844C181.529 702.75 181.19 702.656 181.003 702.562L181.94 699.312C182.836 699.542 183.628 699.625 184.315 699.562C185.003 699.5 185.612 699.193 186.144 698.641C186.685 698.099 187.18 697.219 187.628 696L188.315 694.125L179.44 670H183.44L190.065 689.125H190.315L196.94 670H200.94L190.753 697.5C190.295 698.739 189.727 699.766 189.05 700.578C188.373 701.401 187.586 702.01 186.69 702.406C185.805 702.802 184.805 703 183.69 703ZM204.048 703V670H207.61V673.812H208.048C208.318 673.396 208.693 672.864 209.173 672.219C209.662 671.562 210.36 670.979 211.266 670.469C212.183 669.948 213.423 669.687 214.985 669.687C217.006 669.687 218.787 670.193 220.329 671.203C221.871 672.213 223.074 673.646 223.938 675.5C224.803 677.354 225.235 679.542 225.235 682.062C225.235 684.604 224.803 686.807 223.938 688.672C223.074 690.526 221.876 691.963 220.345 692.984C218.813 693.995 217.048 694.5 215.048 694.5C213.506 694.5 212.272 694.245 211.345 693.734C210.417 693.213 209.704 692.625 209.204 691.969C208.704 691.302 208.318 690.75 208.048 690.312H207.735V703H204.048ZM207.673 682C207.673 683.812 207.938 685.411 208.47 686.797C209.001 688.172 209.777 689.25 210.798 690.031C211.818 690.802 213.068 691.187 214.548 691.187C216.089 691.187 217.376 690.781 218.407 689.969C219.449 689.146 220.23 688.042 220.751 686.656C221.282 685.26 221.548 683.708 221.548 682C221.548 680.312 221.287 678.792 220.766 677.437C220.256 676.073 219.48 674.995 218.438 674.203C217.407 673.401 216.11 673 214.548 673C213.048 673 211.787 673.38 210.766 674.141C209.746 674.891 208.975 675.943 208.454 677.297C207.933 678.641 207.673 680.208 207.673 682ZM239.163 694.5C236.85 694.5 234.855 693.989 233.178 692.969C231.512 691.937 230.225 690.5 229.319 688.656C228.423 686.802 227.975 684.646 227.975 682.187C227.975 679.729 228.423 677.562 229.319 675.687C230.225 673.802 231.486 672.333 233.1 671.281C234.725 670.219 236.621 669.687 238.788 669.687C240.038 669.687 241.272 669.896 242.491 670.312C243.71 670.729 244.819 671.406 245.819 672.344C246.819 673.271 247.616 674.5 248.21 676.031C248.803 677.562 249.1 679.448 249.1 681.687V683.25H230.6V680.062H245.35C245.35 678.708 245.079 677.5 244.538 676.437C244.006 675.375 243.246 674.536 242.256 673.922C241.277 673.307 240.121 673 238.788 673C237.319 673 236.048 673.364 234.975 674.094C233.913 674.812 233.095 675.75 232.522 676.906C231.949 678.062 231.663 679.302 231.663 680.625V682.75C231.663 684.562 231.975 686.099 232.6 687.359C233.236 688.609 234.116 689.562 235.241 690.219C236.366 690.864 237.673 691.187 239.163 691.187C240.131 691.187 241.006 691.052 241.788 690.781C242.579 690.5 243.262 690.083 243.835 689.531C244.407 688.969 244.85 688.271 245.163 687.437L248.725 688.437C248.35 689.646 247.72 690.708 246.835 691.625C245.949 692.531 244.855 693.239 243.553 693.75C242.251 694.25 240.788 694.5 239.163 694.5ZM270.95 670C270.762 668.417 270.002 667.187 268.668 666.312C267.335 665.437 265.7 665 263.762 665C262.345 665 261.106 665.229 260.043 665.687C258.991 666.146 258.168 666.776 257.575 667.578C256.991 668.38 256.7 669.292 256.7 670.312C256.7 671.167 256.903 671.901 257.309 672.516C257.726 673.12 258.257 673.625 258.903 674.031C259.548 674.427 260.226 674.755 260.934 675.016C261.642 675.266 262.293 675.469 262.887 675.625L266.137 676.5C266.97 676.719 267.897 677.021 268.918 677.406C269.95 677.792 270.934 678.318 271.871 678.984C272.819 679.641 273.601 680.484 274.215 681.516C274.83 682.547 275.137 683.812 275.137 685.312C275.137 687.042 274.684 688.604 273.778 690C272.882 691.396 271.569 692.505 269.84 693.328C268.121 694.151 266.033 694.562 263.575 694.562C261.283 694.562 259.298 694.193 257.621 693.453C255.955 692.713 254.642 691.682 253.684 690.359C252.736 689.036 252.2 687.5 252.075 685.75H256.075C256.179 686.958 256.585 687.958 257.293 688.75C258.012 689.531 258.918 690.114 260.012 690.5C261.116 690.875 262.304 691.062 263.575 691.062C265.054 691.062 266.382 690.823 267.559 690.344C268.736 689.854 269.668 689.177 270.356 688.312C271.043 687.437 271.387 686.417 271.387 685.25C271.387 684.187 271.09 683.323 270.496 682.656C269.903 681.989 269.121 681.448 268.153 681.031C267.184 680.614 266.137 680.25 265.012 679.937L261.075 678.812C258.575 678.094 256.595 677.068 255.137 675.734C253.679 674.401 252.95 672.656 252.95 670.5C252.95 668.708 253.434 667.146 254.403 665.812C255.382 664.469 256.694 663.427 258.34 662.687C259.996 661.937 261.845 661.562 263.887 661.562C265.95 661.562 267.783 661.932 269.387 662.672C270.991 663.401 272.262 664.401 273.2 665.672C274.147 666.943 274.647 668.385 274.7 670H270.95ZM288.998 694.5C286.748 694.5 284.811 693.969 283.186 692.906C281.561 691.844 280.311 690.38 279.436 688.516C278.561 686.651 278.123 684.521 278.123 682.125C278.123 679.687 278.571 677.536 279.467 675.672C280.373 673.797 281.634 672.333 283.248 671.281C284.873 670.219 286.769 669.687 288.936 669.687C290.623 669.687 292.144 670 293.498 670.625C294.852 671.25 295.962 672.125 296.826 673.25C297.691 674.375 298.227 675.687 298.436 677.187H294.748C294.467 676.094 293.842 675.125 292.873 674.281C291.915 673.427 290.623 673 288.998 673C287.561 673 286.3 673.375 285.217 674.125C284.144 674.864 283.305 675.911 282.701 677.266C282.107 678.609 281.811 680.187 281.811 682C281.811 683.854 282.102 685.469 282.686 686.844C283.279 688.219 284.113 689.286 285.186 690.047C286.269 690.807 287.54 691.187 288.998 691.187C289.956 691.187 290.826 691.021 291.607 690.687C292.389 690.354 293.05 689.875 293.592 689.25C294.134 688.625 294.519 687.875 294.748 687H298.436C298.227 688.417 297.712 689.693 296.889 690.828C296.076 691.953 294.998 692.849 293.654 693.516C292.321 694.172 290.769 694.5 288.998 694.5ZM302.066 694V670H305.629V673.625H305.879C306.316 672.437 307.108 671.474 308.254 670.734C309.4 669.995 310.691 669.625 312.129 669.625C312.4 669.625 312.738 669.63 313.144 669.641C313.551 669.651 313.858 669.667 314.066 669.687V673.437C313.941 673.406 313.655 673.359 313.207 673.297C312.769 673.224 312.306 673.187 311.816 673.187C310.65 673.187 309.608 673.432 308.691 673.922C307.785 674.401 307.066 675.068 306.535 675.922C306.014 676.766 305.754 677.729 305.754 678.812V694H302.066ZM316.677 694V670H320.365V694H316.677ZM318.552 666C317.834 666 317.214 665.755 316.693 665.266C316.183 664.776 315.927 664.187 315.927 663.5C315.927 662.812 316.183 662.224 316.693 661.734C317.214 661.245 317.834 661 318.552 661C319.271 661 319.886 661.245 320.396 661.734C320.917 662.224 321.177 662.812 321.177 663.5C321.177 664.187 320.917 664.776 320.396 665.266C319.886 665.755 319.271 666 318.552 666ZM325.359 703V670H328.921V673.812H329.359C329.63 673.396 330.005 672.864 330.484 672.219C330.973 671.562 331.671 670.979 332.577 670.469C333.494 669.948 334.734 669.687 336.296 669.687C338.317 669.687 340.098 670.193 341.64 671.203C343.182 672.213 344.385 673.646 345.249 675.5C346.114 677.354 346.546 679.542 346.546 682.062C346.546 684.604 346.114 686.807 345.249 688.672C344.385 690.526 343.187 691.963 341.656 692.984C340.124 693.995 338.359 694.5 336.359 694.5C334.817 694.5 333.583 694.245 332.656 693.734C331.729 693.213 331.015 692.625 330.515 691.969C330.015 691.302 329.63 690.75 329.359 690.312H329.046V703H325.359ZM328.984 682C328.984 683.812 329.249 685.411 329.781 686.797C330.312 688.172 331.088 689.25 332.109 690.031C333.13 690.802 334.38 691.187 335.859 691.187C337.4 691.187 338.687 690.781 339.718 689.969C340.76 689.146 341.541 688.042 342.062 686.656C342.593 685.26 342.859 683.708 342.859 682C342.859 680.312 342.598 678.792 342.077 677.437C341.567 676.073 340.791 674.995 339.749 674.203C338.718 673.401 337.421 673 335.859 673C334.359 673 333.098 673.38 332.077 674.141C331.057 674.891 330.286 675.943 329.765 677.297C329.244 678.641 328.984 680.208 328.984 682ZM360.849 670V673.125H348.411V670H360.849ZM352.036 664.25H355.724V687.125C355.724 688.167 355.875 688.948 356.177 689.469C356.489 689.979 356.885 690.323 357.364 690.5C357.854 690.667 358.37 690.75 358.911 690.75C359.317 690.75 359.651 690.729 359.911 690.687C360.172 690.635 360.38 690.594 360.536 690.562L361.286 693.875C361.036 693.969 360.687 694.062 360.239 694.156C359.791 694.26 359.224 694.312 358.536 694.312C357.495 694.312 356.474 694.088 355.474 693.641C354.484 693.193 353.661 692.51 353.005 691.594C352.359 690.677 352.036 689.521 352.036 688.125V664.25ZM385.688 670V673.125H373.251V670H385.688ZM376.876 664.25H380.563V687.125C380.563 688.167 380.714 688.948 381.016 689.469C381.329 689.979 381.725 690.323 382.204 690.5C382.693 690.667 383.209 690.75 383.751 690.75C384.157 690.75 384.49 690.729 384.751 690.687C385.011 690.635 385.219 690.594 385.376 690.562L386.126 693.875C385.876 693.969 385.527 694.062 385.079 694.156C384.631 694.26 384.063 694.312 383.376 694.312C382.334 694.312 381.313 694.088 380.313 693.641C379.324 693.193 378.501 692.51 377.844 691.594C377.199 690.677 376.876 689.521 376.876 688.125V664.25ZM398.967 694.5C396.8 694.5 394.899 693.984 393.264 692.953C391.639 691.922 390.368 690.479 389.452 688.625C388.545 686.771 388.092 684.604 388.092 682.125C388.092 679.625 388.545 677.443 389.452 675.578C390.368 673.713 391.639 672.266 393.264 671.234C394.899 670.203 396.8 669.687 398.967 669.687C401.134 669.687 403.03 670.203 404.655 671.234C406.29 672.266 407.561 673.713 408.467 675.578C409.384 677.443 409.842 679.625 409.842 682.125C409.842 684.604 409.384 686.771 408.467 688.625C407.561 690.479 406.29 691.922 404.655 692.953C403.03 693.984 401.134 694.5 398.967 694.5ZM398.967 691.187C400.613 691.187 401.967 690.766 403.03 689.922C404.092 689.078 404.879 687.969 405.389 686.594C405.899 685.219 406.155 683.729 406.155 682.125C406.155 680.521 405.899 679.026 405.389 677.641C404.879 676.255 404.092 675.135 403.03 674.281C401.967 673.427 400.613 673 398.967 673C397.321 673 395.967 673.427 394.905 674.281C393.842 675.135 393.056 676.255 392.545 677.641C392.035 679.026 391.78 680.521 391.78 682.125C391.78 683.729 392.035 685.219 392.545 686.594C393.056 687.969 393.842 689.078 394.905 689.922C395.967 690.766 397.321 691.187 398.967 691.187ZM423.461 694.5C421.294 694.5 419.393 693.984 417.758 692.953C416.133 691.922 414.862 690.479 413.945 688.625C413.039 686.771 412.586 684.604 412.586 682.125C412.586 679.625 413.039 677.443 413.945 675.578C414.862 673.713 416.133 672.266 417.758 671.234C419.393 670.203 421.294 669.687 423.461 669.687C425.628 669.687 427.524 670.203 429.149 671.234C430.784 672.266 432.055 673.713 432.961 675.578C433.878 677.443 434.336 679.625 434.336 682.125C434.336 684.604 433.878 686.771 432.961 688.625C432.055 690.479 430.784 691.922 429.149 692.953C427.524 693.984 425.628 694.5 423.461 694.5ZM423.461 691.187C425.107 691.187 426.461 690.766 427.524 689.922C428.586 689.078 429.373 687.969 429.883 686.594C430.393 685.219 430.649 683.729 430.649 682.125C430.649 680.521 430.393 679.026 429.883 677.641C429.373 676.255 428.586 675.135 427.524 674.281C426.461 673.427 425.107 673 423.461 673C421.815 673 420.461 673.427 419.399 674.281C418.336 675.135 417.55 676.255 417.039 677.641C416.529 679.026 416.274 680.521 416.274 682.125C416.274 683.729 416.529 685.219 417.039 686.594C417.55 687.969 418.336 689.078 419.399 689.922C420.461 690.766 421.815 691.187 423.461 691.187ZM441.892 662V694H438.205V662H441.892ZM463.886 675.375L460.574 676.312C460.366 675.76 460.058 675.224 459.652 674.703C459.256 674.172 458.715 673.734 458.027 673.391C457.34 673.047 456.459 672.875 455.386 672.875C453.918 672.875 452.694 673.213 451.715 673.891C450.746 674.557 450.261 675.406 450.261 676.437C450.261 677.354 450.595 678.078 451.261 678.609C451.928 679.141 452.97 679.583 454.386 679.937L457.949 680.812C460.095 681.333 461.694 682.13 462.746 683.203C463.798 684.266 464.324 685.635 464.324 687.312C464.324 688.687 463.928 689.917 463.136 691C462.355 692.083 461.261 692.937 459.855 693.562C458.449 694.187 456.813 694.5 454.949 694.5C452.501 694.5 450.475 693.969 448.871 692.906C447.267 691.844 446.251 690.292 445.824 688.25L449.324 687.375C449.657 688.667 450.287 689.635 451.215 690.281C452.152 690.927 453.376 691.25 454.886 691.25C456.605 691.25 457.97 690.885 458.98 690.156C460.001 689.417 460.511 688.531 460.511 687.5C460.511 686.667 460.22 685.969 459.636 685.406C459.053 684.833 458.157 684.406 456.949 684.125L452.949 683.187C450.751 682.667 449.136 681.859 448.105 680.766C447.084 679.661 446.574 678.281 446.574 676.625C446.574 675.271 446.954 674.073 447.715 673.031C448.485 671.989 449.532 671.172 450.855 670.578C452.188 669.984 453.699 669.687 455.386 669.687C457.761 669.687 459.626 670.208 460.98 671.25C462.345 672.292 463.313 673.667 463.886 675.375ZM489.417 670V673.125H476.48V670H489.417ZM480.355 694V666.687C480.355 665.312 480.678 664.167 481.323 663.25C481.969 662.333 482.808 661.646 483.839 661.187C484.87 660.729 485.959 660.5 487.105 660.5C488.011 660.5 488.75 660.573 489.323 660.719C489.896 660.864 490.323 661 490.605 661.125L489.542 664.312C489.355 664.25 489.094 664.172 488.761 664.078C488.438 663.984 488.011 663.937 487.48 663.937C486.261 663.937 485.381 664.245 484.839 664.859C484.308 665.474 484.042 666.375 484.042 667.562V694H480.355ZM501.587 694.5C499.42 694.5 497.519 693.984 495.884 692.953C494.259 691.922 492.988 690.479 492.071 688.625C491.165 686.771 490.712 684.604 490.712 682.125C490.712 679.625 491.165 677.443 492.071 675.578C492.988 673.713 494.259 672.266 495.884 671.234C497.519 670.203 499.42 669.687 501.587 669.687C503.754 669.687 505.649 670.203 507.274 671.234C508.91 672.266 510.181 673.713 511.087 675.578C512.004 677.443 512.462 679.625 512.462 682.125C512.462 684.604 512.004 686.771 511.087 688.625C510.181 690.479 508.91 691.922 507.274 692.953C505.649 693.984 503.754 694.5 501.587 694.5ZM501.587 691.187C503.233 691.187 504.587 690.766 505.649 689.922C506.712 689.078 507.498 687.969 508.009 686.594C508.519 685.219 508.774 683.729 508.774 682.125C508.774 680.521 508.519 679.026 508.009 677.641C507.498 676.255 506.712 675.135 505.649 674.281C504.587 673.427 503.233 673 501.587 673C499.941 673 498.587 673.427 497.524 674.281C496.462 675.135 495.675 676.255 495.165 677.641C494.655 679.026 494.399 680.521 494.399 682.125C494.399 683.729 494.655 685.219 495.165 686.594C495.675 687.969 496.462 689.078 497.524 689.922C498.587 690.766 499.941 691.187 501.587 691.187ZM516.331 694V670H519.893V673.625H520.143C520.581 672.437 521.372 671.474 522.518 670.734C523.664 669.995 524.956 669.625 526.393 669.625C526.664 669.625 527.003 669.63 527.409 669.641C527.815 669.651 528.122 669.667 528.331 669.687V673.437C528.206 673.406 527.919 673.359 527.471 673.297C527.034 673.224 526.57 673.187 526.081 673.187C524.914 673.187 523.872 673.432 522.956 673.922C522.049 674.401 521.331 675.068 520.799 675.922C520.279 676.766 520.018 677.729 520.018 678.812V694H516.331ZM546.994 694L539.682 670H543.557L548.744 688.375H548.994L554.119 670H558.057L563.119 688.312H563.369L568.557 670H572.432L565.119 694H561.494L556.244 675.562H555.869L550.619 694H546.994ZM584.48 694.5C582.314 694.5 580.413 693.984 578.777 692.953C577.152 691.922 575.881 690.479 574.965 688.625C574.059 686.771 573.605 684.604 573.605 682.125C573.605 679.625 574.059 677.443 574.965 675.578C575.881 673.713 577.152 672.266 578.777 671.234C580.413 670.203 582.314 669.687 584.48 669.687C586.647 669.687 588.543 670.203 590.168 671.234C591.803 672.266 593.074 673.713 593.98 675.578C594.897 677.443 595.355 679.625 595.355 682.125C595.355 684.604 594.897 686.771 593.98 688.625C593.074 690.479 591.803 691.922 590.168 692.953C588.543 693.984 586.647 694.5 584.48 694.5ZM584.48 691.187C586.126 691.187 587.48 690.766 588.543 689.922C589.605 689.078 590.392 687.969 590.902 686.594C591.413 685.219 591.668 683.729 591.668 682.125C591.668 680.521 591.413 679.026 590.902 677.641C590.392 676.255 589.605 675.135 588.543 674.281C587.48 673.427 586.126 673 584.48 673C582.835 673 581.48 673.427 580.418 674.281C579.355 675.135 578.569 676.255 578.059 677.641C577.548 679.026 577.293 680.521 577.293 682.125C577.293 683.729 577.548 685.219 578.059 686.594C578.569 687.969 579.355 689.078 580.418 689.922C581.48 690.766 582.835 691.187 584.48 691.187ZM599.224 694V670H602.787V673.625H603.037C603.474 672.437 604.266 671.474 605.412 670.734C606.558 669.995 607.849 669.625 609.287 669.625C609.558 669.625 609.896 669.63 610.302 669.641C610.709 669.651 611.016 669.667 611.224 669.687V673.437C611.099 673.406 610.813 673.359 610.365 673.297C609.927 673.224 609.464 673.187 608.974 673.187C607.808 673.187 606.766 673.432 605.849 673.922C604.943 674.401 604.224 675.068 603.693 675.922C603.172 676.766 602.912 677.729 602.912 678.812V694H599.224ZM617.273 685.25L617.21 680.687H617.96L628.46 670H633.023L621.835 681.312H621.523L617.273 685.25ZM613.835 694V662H617.523V694H613.835ZM629.085 694L619.71 682.125L622.335 679.562L633.773 694H629.085ZM636.009 694V670H639.697V694H636.009ZM637.884 666C637.165 666 636.545 665.755 636.025 665.266C635.514 664.776 635.259 664.187 635.259 663.5C635.259 662.812 635.514 662.224 636.025 661.734C636.545 661.245 637.165 661 637.884 661C638.603 661 639.217 661.245 639.728 661.734C640.249 662.224 640.509 662.812 640.509 663.5C640.509 664.187 640.249 664.776 639.728 665.266C639.217 665.755 638.603 666 637.884 666ZM648.378 679.562V694H644.69V670H648.253V673.75H648.565C649.128 672.531 649.982 671.552 651.128 670.812C652.274 670.062 653.753 669.687 655.565 669.687C657.19 669.687 658.612 670.021 659.831 670.687C661.05 671.344 661.998 672.344 662.675 673.687C663.352 675.021 663.69 676.708 663.69 678.75V694H660.003V679C660.003 677.114 659.513 675.646 658.534 674.594C657.555 673.531 656.211 673 654.503 673C653.326 673 652.274 673.255 651.347 673.766C650.43 674.276 649.706 675.021 649.175 676C648.644 676.979 648.378 678.167 648.378 679.562ZM678.356 703.5C676.575 703.5 675.044 703.271 673.762 702.812C672.481 702.364 671.414 701.771 670.559 701.031C669.716 700.302 669.044 699.521 668.544 698.687L671.481 696.625C671.815 697.062 672.236 697.562 672.747 698.125C673.257 698.698 673.955 699.193 674.841 699.609C675.736 700.036 676.908 700.25 678.356 700.25C680.294 700.25 681.893 699.781 683.153 698.844C684.414 697.906 685.044 696.437 685.044 694.437V689.562H684.731C684.46 690 684.075 690.542 683.575 691.187C683.085 691.823 682.377 692.391 681.45 692.891C680.533 693.38 679.294 693.625 677.731 693.625C675.794 693.625 674.054 693.167 672.512 692.25C670.981 691.333 669.768 690 668.872 688.25C667.986 686.5 667.544 684.375 667.544 681.875C667.544 679.417 667.976 677.276 668.841 675.453C669.705 673.62 670.908 672.203 672.45 671.203C673.992 670.193 675.773 669.687 677.794 669.687C679.356 669.687 680.596 669.948 681.512 670.469C682.44 670.979 683.148 671.562 683.637 672.219C684.137 672.864 684.523 673.396 684.794 673.812H685.169V670H688.731V694.687C688.731 696.75 688.262 698.427 687.325 699.719C686.398 701.021 685.148 701.974 683.575 702.578C682.012 703.193 680.273 703.5 678.356 703.5ZM678.231 690.312C679.71 690.312 680.96 689.974 681.981 689.297C683.002 688.62 683.778 687.646 684.309 686.375C684.841 685.104 685.106 683.583 685.106 681.812C685.106 680.083 684.846 678.557 684.325 677.234C683.804 675.911 683.033 674.875 682.012 674.125C680.992 673.375 679.731 673 678.231 673C676.669 673 675.367 673.396 674.325 674.187C673.294 674.979 672.518 676.042 671.997 677.375C671.486 678.708 671.231 680.187 671.231 681.812C671.231 683.479 671.492 684.953 672.012 686.234C672.544 687.505 673.325 688.505 674.356 689.234C675.398 689.953 676.69 690.312 678.231 690.312ZM709.774 694L702.461 670H706.336L711.524 688.375H711.774L716.899 670H720.836L725.899 688.312H726.149L731.336 670H735.211L727.899 694H724.274L719.024 675.562H718.649L713.399 694H709.774ZM738.326 694V670H742.014V694H738.326ZM740.201 666C739.482 666 738.863 665.755 738.342 665.266C737.831 664.776 737.576 664.187 737.576 663.5C737.576 662.812 737.831 662.224 738.342 661.734C738.863 661.245 739.482 661 740.201 661C740.92 661 741.535 661.245 742.045 661.734C742.566 662.224 742.826 662.812 742.826 663.5C742.826 664.187 742.566 664.776 742.045 665.266C741.535 665.755 740.92 666 740.201 666ZM757.445 670V673.125H745.008V670H757.445ZM748.633 664.25H752.32V687.125C752.32 688.167 752.471 688.948 752.773 689.469C753.086 689.979 753.482 690.323 753.961 690.5C754.45 690.667 754.966 690.75 755.508 690.75C755.914 690.75 756.247 690.729 756.508 690.687C756.768 690.635 756.976 690.594 757.133 690.562L757.883 693.875C757.633 693.969 757.284 694.062 756.836 694.156C756.388 694.26 755.82 694.312 755.133 694.312C754.091 694.312 753.07 694.088 752.07 693.641C751.081 693.193 750.258 692.51 749.601 691.594C748.956 690.677 748.633 689.521 748.633 688.125V664.25ZM765.435 679.562V694H761.748V662H765.435V673.75H765.748C766.31 672.51 767.154 671.526 768.279 670.797C769.414 670.057 770.925 669.687 772.81 669.687C774.446 669.687 775.878 670.016 777.107 670.672C778.336 671.318 779.289 672.312 779.966 673.656C780.654 674.989 780.998 676.687 780.998 678.75V694H777.31V679C777.31 677.094 776.815 675.62 775.826 674.578C774.847 673.526 773.487 673 771.748 673C770.539 673 769.456 673.255 768.498 673.766C767.55 674.276 766.8 675.021 766.248 676C765.706 676.979 765.435 678.167 765.435 679.562ZM797.099 694V662H816.411V665.437H800.974V676.25H815.411V679.687H800.974V690.562H816.661V694H797.099ZM821.636 694V662H832.448C834.959 662 837.011 662.453 838.604 663.359C840.209 664.255 841.396 665.469 842.167 667C842.938 668.531 843.323 670.239 843.323 672.125C843.323 674.01 842.938 675.724 842.167 677.266C841.406 678.807 840.229 680.036 838.636 680.953C837.042 681.859 835 682.312 832.511 682.312H824.761V678.875H832.386C834.104 678.875 835.485 678.578 836.526 677.984C837.568 677.391 838.323 676.588 838.792 675.578C839.271 674.557 839.511 673.406 839.511 672.125C839.511 670.844 839.271 669.698 838.792 668.687C838.323 667.677 837.563 666.885 836.511 666.312C835.459 665.729 834.063 665.437 832.323 665.437H825.511V694H821.636ZM869.68 672C869.337 670.948 868.883 670.005 868.321 669.172C867.769 668.328 867.107 667.609 866.337 667.016C865.576 666.422 864.712 665.969 863.743 665.656C862.774 665.344 861.712 665.187 860.555 665.187C858.659 665.187 856.936 665.677 855.383 666.656C853.831 667.635 852.597 669.078 851.68 670.984C850.764 672.891 850.305 675.229 850.305 678C850.305 680.771 850.769 683.109 851.696 685.016C852.623 686.922 853.878 688.364 855.462 689.344C857.045 690.323 858.826 690.812 860.805 690.812C862.639 690.812 864.253 690.422 865.649 689.641C867.055 688.849 868.149 687.734 868.93 686.297C869.722 684.849 870.118 683.146 870.118 681.187L871.305 681.437H861.68V678H873.868V681.437C873.868 684.073 873.305 686.364 872.18 688.312C871.066 690.26 869.524 691.771 867.555 692.844C865.597 693.906 863.347 694.437 860.805 694.437C857.972 694.437 855.482 693.771 853.337 692.437C851.201 691.104 849.534 689.208 848.337 686.75C847.149 684.292 846.555 681.375 846.555 678C846.555 675.469 846.894 673.193 847.571 671.172C848.258 669.141 849.227 667.411 850.477 665.984C851.727 664.557 853.206 663.463 854.915 662.703C856.623 661.943 858.503 661.562 860.555 661.562C862.243 661.562 863.816 661.818 865.274 662.328C866.743 662.828 868.05 663.542 869.196 664.469C870.352 665.385 871.316 666.484 872.087 667.766C872.857 669.036 873.389 670.448 873.68 672H869.68ZM897.922 694.5C895.922 694.5 894.156 693.995 892.625 692.984C891.094 691.963 889.896 690.526 889.031 688.672C888.167 686.807 887.734 684.604 887.734 682.062C887.734 679.542 888.167 677.354 889.031 675.5C889.896 673.646 891.099 672.213 892.641 671.203C894.182 670.193 895.964 669.687 897.984 669.687C899.547 669.687 900.781 669.948 901.688 670.469C902.604 670.979 903.302 671.562 903.781 672.219C904.271 672.864 904.651 673.396 904.922 673.812H905.234V662H908.922V694H905.359V690.312H904.922C904.651 690.75 904.266 691.302 903.766 691.969C903.266 692.625 902.552 693.213 901.625 693.734C900.698 694.245 899.464 694.5 897.922 694.5ZM898.422 691.187C899.901 691.187 901.151 690.802 902.172 690.031C903.193 689.25 903.969 688.172 904.5 686.797C905.031 685.411 905.297 683.812 905.297 682C905.297 680.208 905.037 678.641 904.516 677.297C903.995 675.943 903.224 674.891 902.203 674.141C901.182 673.38 899.922 673 898.422 673C896.859 673 895.557 673.401 894.516 674.203C893.484 674.995 892.708 676.073 892.188 677.437C891.677 678.792 891.422 680.312 891.422 682C891.422 683.708 891.682 685.26 892.203 686.656C892.734 688.042 893.516 689.146 894.547 689.969C895.589 690.781 896.88 691.187 898.422 691.187ZM921.49 694.562C919.969 694.562 918.589 694.276 917.349 693.703C916.11 693.12 915.126 692.281 914.396 691.187C913.667 690.083 913.303 688.75 913.303 687.187C913.303 685.812 913.573 684.698 914.115 683.844C914.657 682.979 915.381 682.302 916.287 681.812C917.193 681.323 918.193 680.958 919.287 680.719C920.391 680.469 921.501 680.271 922.615 680.125C924.073 679.937 925.256 679.797 926.162 679.703C927.079 679.599 927.745 679.427 928.162 679.187C928.589 678.948 928.803 678.531 928.803 677.937V677.812C928.803 676.271 928.381 675.073 927.537 674.219C926.704 673.364 925.438 672.937 923.74 672.937C921.98 672.937 920.599 673.323 919.599 674.094C918.599 674.864 917.896 675.687 917.49 676.562L913.99 675.312C914.615 673.854 915.448 672.719 916.49 671.906C917.542 671.083 918.688 670.51 919.928 670.187C921.178 669.854 922.407 669.687 923.615 669.687C924.386 669.687 925.271 669.781 926.271 669.969C927.282 670.146 928.256 670.516 929.193 671.078C930.141 671.641 930.928 672.489 931.553 673.625C932.178 674.76 932.49 676.281 932.49 678.187V694H928.803V690.75H928.615C928.365 691.271 927.948 691.828 927.365 692.422C926.782 693.016 926.006 693.521 925.037 693.937C924.068 694.354 922.886 694.562 921.49 694.562ZM922.053 691.25C923.511 691.25 924.74 690.963 925.74 690.391C926.751 689.818 927.511 689.078 928.021 688.172C928.542 687.266 928.803 686.312 928.803 685.312V681.937C928.646 682.125 928.303 682.297 927.771 682.453C927.251 682.599 926.646 682.729 925.959 682.844C925.282 682.948 924.62 683.042 923.974 683.125C923.339 683.198 922.823 683.26 922.428 683.312C921.469 683.437 920.573 683.641 919.74 683.922C918.917 684.193 918.251 684.604 917.74 685.156C917.24 685.698 916.99 686.437 916.99 687.375C916.99 688.656 917.464 689.625 918.412 690.281C919.37 690.927 920.584 691.25 922.053 691.25ZM947.898 670V673.125H935.461V670H947.898ZM939.086 664.25H942.773V687.125C942.773 688.167 942.924 688.948 943.226 689.469C943.539 689.979 943.935 690.323 944.414 690.5C944.903 690.667 945.419 690.75 945.961 690.75C946.367 690.75 946.7 690.729 946.961 690.687C947.221 690.635 947.429 690.594 947.586 690.562L948.336 693.875C948.086 693.969 947.737 694.062 947.289 694.156C946.841 694.26 946.273 694.312 945.586 694.312C944.544 694.312 943.523 694.088 942.523 693.641C941.533 693.193 940.711 692.51 940.054 691.594C939.408 690.677 939.086 689.521 939.086 688.125V664.25ZM958.747 694.562C957.227 694.562 955.846 694.276 954.607 693.703C953.367 693.12 952.383 692.281 951.654 691.187C950.925 690.083 950.56 688.75 950.56 687.187C950.56 685.812 950.831 684.698 951.372 683.844C951.914 682.979 952.638 682.302 953.544 681.812C954.451 681.323 955.451 680.958 956.544 680.719C957.649 680.469 958.758 680.271 959.872 680.125C961.331 679.937 962.513 679.797 963.419 679.703C964.336 679.599 965.003 679.427 965.419 679.187C965.846 678.948 966.06 678.531 966.06 677.937V677.812C966.06 676.271 965.638 675.073 964.794 674.219C963.961 673.364 962.695 672.937 960.997 672.937C959.237 672.937 957.857 673.323 956.857 674.094C955.857 674.864 955.154 675.687 954.747 676.562L951.247 675.312C951.872 673.854 952.706 672.719 953.747 671.906C954.8 671.083 955.945 670.51 957.185 670.187C958.435 669.854 959.664 669.687 960.872 669.687C961.643 669.687 962.529 669.781 963.529 669.969C964.539 670.146 965.513 670.516 966.451 671.078C967.399 671.641 968.185 672.489 968.81 673.625C969.435 674.76 969.747 676.281 969.747 678.187V694H966.06V690.75H965.872C965.622 691.271 965.206 691.828 964.622 692.422C964.039 693.016 963.263 693.521 962.294 693.937C961.326 694.354 960.143 694.562 958.747 694.562ZM959.31 691.25C960.768 691.25 961.997 690.963 962.997 690.391C964.008 689.818 964.768 689.078 965.279 688.172C965.8 687.266 966.06 686.312 966.06 685.312V681.937C965.904 682.125 965.56 682.297 965.029 682.453C964.508 682.599 963.904 682.729 963.216 682.844C962.539 682.948 961.878 683.042 961.232 683.125C960.596 683.198 960.081 683.26 959.685 683.312C958.727 683.437 957.831 683.641 956.997 683.922C956.175 684.193 955.508 684.604 954.997 685.156C954.497 685.698 954.247 686.437 954.247 687.375C954.247 688.656 954.721 689.625 955.669 690.281C956.628 690.927 957.841 691.25 959.31 691.25ZM977.405 694.25C976.635 694.25 975.973 693.974 975.421 693.422C974.869 692.87 974.593 692.208 974.593 691.437C974.593 690.667 974.869 690.005 975.421 689.453C975.973 688.901 976.635 688.625 977.405 688.625C978.176 688.625 978.838 688.901 979.39 689.453C979.942 690.005 980.218 690.667 980.218 691.437C980.218 691.948 980.088 692.417 979.827 692.844C979.577 693.271 979.239 693.614 978.812 693.875C978.395 694.125 977.926 694.25 977.405 694.25Z"
      fill="#E5E5E5" />
  </g>
  <defs>
    <linearGradient id="darkGradient" x1="947.22" y1="436.48" x2="435.905" y2="848.178" gradientUnits="userSpaceOnUse">
      <stop stop-color="#A8FF78" />
      <stop offset="1" stop-color="#DACF50" />
    </linearGradient>
  </defs>
</svg>
